<svg id="powder" xmlns="http://www.w3.org/2000/svg" viewBox="0 0 28.29 31.02">
    <defs>
      <mask id="a" x="0" y="7.51" width="28.29" height="23.51" maskUnits="userSpaceOnUse">
        <path d="M28.65 26.82V8.16c0-.58-.38-.65-.53-.66h-.5c-.5 0-.54.56-.54.74V26.84a2.75 2.75 0 01-.82 1.89 2.31 2.31 0 01-1.62.6H3.98a2.23 2.23 0 01-1.6-1 3 3 0 01-.46-1.85V8.31c0-.83-.67-.81-.67-.81H.94c-.53 0-.58.59-.59.78v18.54a4.12 4.12 0 001.55 3.33 3.64 3.64 0 002.38.85h20.58a3.89 3.89 0 002.91-1.56 4.37 4.37 0 00.88-2.62z" fill="#fff" transform="translate(-.35 .01)"/>
      </mask>
    </defs>
    <path d="M20.43 18.48a3.31 3.31 0 000 6.61 3.31 3.31 0 000-6.61zm0 5a1.72 1.72 0 111.6-1.71 1.66 1.66 0 01-1.6 1.73zM11.26.01a3.3 3.3 0 00-3.19 3.4 3.3 3.3 0 003.19 3.4 3.29 3.29 0 003.18-3.4 3.29 3.29 0 00-3.18-3.4zm0 5.48a2 2 0 01-1.94-2.08 2 2 0 011.94-2.07 2 2 0 011.93 2.07 2 2 0 01-1.93 2.07zM7.88 17.62a2.51 2.51 0 000 5 2.51 2.51 0 000-5zm10.27-7.85a7.61 7.61 0 016.18 1.5c.91.76 1.76 1.33 1.15 2.12-.34.34-.64.66-1.72-.53a6.94 6.94 0 00-5.61-1.44 6.2 6.2 0 00-3.56 2.15 8.23 8.23 0 01-6.49 2.49 8.12 8.12 0 01-5.25-2.54 1 1 0 01-.12-1.13.85.85 0 011.2-.13 7 7 0 003.82 2.07 6.45 6.45 0 005.74-2c2.31-2.14 3.46-2.32 4.66-2.56z" fill="#fff"/>
    <path d="M28.3 26.83V8.17c0-.58-.38-.65-.53-.66h-.5c-.5 0-.54.56-.54.74V26.85a2.75 2.75 0 01-.82 1.89 2.31 2.31 0 01-1.62.6H3.63a2.23 2.23 0 01-1.6-1 3 3 0 01-.46-1.85V8.32c0-.83-.67-.81-.67-.81H.59c-.53 0-.58.59-.59.78v18.54a4.12 4.12 0 001.55 3.33 3.64 3.64 0 002.38.85h20.58a3.89 3.89 0 002.91-1.56 4.37 4.37 0 00.88-2.62z" fill="#fff"/>
</svg>
