<svg width="29" height="31" fill="none" xmlns="http://www.w3.org/2000/svg"><path d="M20.7762 18.4731c-1.706 0-3.0885 1.4784-3.0885 3.3011 0 1.8241 1.383 3.3019 3.0885 3.3019 1.7056 0 3.0881-1.4783 3.0881-3.3019 0-1.8232-1.3829-3.3011-3.0881-3.3011zm0 5.0133c-.884 0-1.6008-.7663-1.6008-1.7113 0-.946.7168-1.7118 1.6008-1.7118.8841 0 1.6014.7658 1.6014 1.7118 0 .945-.7173 1.7113-1.6014 1.7113zM11.6068-.0101c-1.7603 0-3.1872 1.5248-3.1872 3.407 0 1.8823 1.4264 3.4067 3.1872 3.4067 1.7609 0 3.1873-1.5239 3.1873-3.4066-.0004-1.8828-1.4269-3.4071-3.1873-3.4071zm-.0004 5.4758c-1.0689 0-1.9353-.9261-1.9353-2.0692 0-1.1427.8664-2.0693 1.9353-2.0693 1.0694 0 1.9357.9266 1.9357 2.0693 0 1.1431-.8663 2.0692-1.9357 2.0692zM8.227 17.6105c-1.2938 0-2.3414 1.1198-2.3414 2.5027 0 1.3824 1.0476 2.5028 2.3413 2.5028 1.2937 0 2.3413-1.1204 2.3413-2.5028s-1.0476-2.5027-2.3413-2.5027zM8 19.5c-.459 0 1.1582 1.1039 1.1582.6132 0-.4897-1.6172.3868-1.1582.3868.4586 0 1.057-.8774 1.057-.3877 0 .4906-.5984-.6123-1.057-.6123zM18.5002 9.7627s3.04-.8385 6.1779 1.4938c.9072.7599 1.7654 1.3364 1.1523 2.1225-.3435.3405-.6371.6568-1.716-.5241-1.0539-.76-2.7196-1.8983-5.6142-1.4415-1.1278.2364-1.9616.5507-3.5557 2.1492-1.5936 1.5984-3.9721 2.7251-6.4973 2.4892-2.5253-.2354-3.8489-1.2579-5.2463-2.542-.294-.4195-.294-.8651-.1228-1.1272.1713-.262.8333-.5241 1.2012-.1312.368.3933 2.1084 1.9656 3.8244 2.0702 1.7165.1046 3.4329.2097 5.737-1.9656 2.306-2.1739 3.4583-2.3313 4.6595-2.5933z" fill="#fff"/><mask id="a" fill="#fff"><path d="M28.6456 26.8156V8.1574c0-.5783-.3738-.65-.5238-.6553h-.5057c-.4934 0-.5365.5565-.5378.7386V8.3014c.0013 3.6086.0091 18.2532-.0018 18.5399-.0123.328-.0734 1.1664-.8211 1.8872-.8084.695-1.6176.603-1.6176.603s-20.1773 0-20.6553-.0266c-.3797-.0654-1.0417-.2098-1.6059-1.009-.5637-.7992-.453-1.8474-.453-1.8474V8.3149c0-.8385-.6743-.8123-.6743-.8123H.942c-.536 0-.5854.588-.5881.7764v18.537c0 1.3369.4536 2.3977 1.5479 3.3369 1.0938.9387 2.3748.8564 2.3748.8564s19.7236 0 20.5818-.0024c.8582-.0025 1.9856-.4166 2.9159-1.5554.9293-1.1387.8713-2.6359.8713-2.6359z"/></mask><path d="M28.6456 26.8156V8.1574c0-.5783-.3738-.65-.5238-.6553h-.5057c-.4934 0-.5365.5565-.5378.7386V8.3014c.0013 3.6086.0091 18.2532-.0018 18.5399-.0123.328-.0734 1.1664-.8211 1.8872-.8084.695-1.6176.603-1.6176.603s-20.1773 0-20.6553-.0266c-.3797-.0654-1.0417-.2098-1.6059-1.009-.5637-.7992-.453-1.8474-.453-1.8474V8.3149c0-.8385-.6743-.8123-.6743-.8123H.942c-.536 0-.5854.588-.5881.7764v18.537c0 1.3369.4536 2.3977 1.5479 3.3369 1.0938.9387 2.3748.8564 2.3748.8564s19.7236 0 20.5818-.0024c.8582-.0025 1.9856-.4166 2.9159-1.5554.9293-1.1387.8713-2.6359.8713-2.6359z" fill="#fff"/><path d="M28.6456 26.8156h-20v.3872l.015.387 19.985-.7742zm-.5238-19.3135l.7101-19.9874-.3549-.0126h-.3552v20zm-1.0435.7386L7.0789 8.0915l-.0006.0746v.0747h20zm0 .0606h-20v.0075l20-.0075zm-.0018 18.5399l-19.9857-.7579-.0004.0123 19.9861.7456zm-.8211 1.8872l13.0395 15.1648.4315-.371.4097-.395-13.8807-14.3988zm-1.6176.603l2.2598-19.872-1.1263-.128h-1.1335v20zm-20.6553-.0266L.5883 49.0146l1.1332.1952 1.1482.064 1.1128-19.969zm-1.6059-1.009l-16.3438 11.5273.0043.0062L2.3766 28.2958zm-.453-1.8474l19.8896 2.098.1103-1.0461v-1.0519h-20zM1.2492 7.5026v20h.3877l.3875-.0151-.7752-19.985zm-.8954.7764l-19.9979-.2885-.0021.1442v.1443h20zM1.9018 30.153L-11.124 45.3296l.0007.0006 13.025-15.1773zm2.3748.8564v-20h-.6422l-.6408.0412 1.283 19.9588zm23.4977-1.5578l15.4888 12.653.006-.0074-15.4948-12.6456zm20.8713-2.6359V8.1574h-40v18.6582h40zm0-18.6582c0-4.97-1.8583-11.4194-7.6176-16.0842-4.8897-3.9604-10.0293-4.4815-12.1961-4.5585l-1.4201 39.9748c-2.0169-.0717-6.8945-.5543-11.5598-4.333-5.5349-4.483-7.2064-10.6073-7.2064-14.999h40zM28.1218-12.4979h-.5057v40h.5057v-40zm-.5057 0c-4.1562 0-8.5236 1.2668-12.283 4.083-3.511 2.6302-5.4171 5.7995-6.419 8.0335-1.7976 4.0079-1.8284 7.558-1.8352 8.4729l39.9988.2985c-.0054.7328-.0141 3.9136-1.6664 7.5976-.9293 2.0721-2.7321 5.0909-6.0962 7.611a19.5298 19.5298 0 01-11.699 3.9035v-40zM7.0783 8.2407V8.2917h40v-.0001-.0001-.0001-.0001-.0001-.0001-.0001-.0001-.0001-.0001-.0001-.0001-.0001V8.29v-.0002-.0002-.0002-.0002-.0002-.0001-.0001-.0001-.0001-.0001-.0001-.0001-.0001-.0001-.0001-.0001-.0001-.0001-.0001-.0001-.0001-.0001-.0001-.0001-.0001-.0002-.0002-.0002-.0002-.0002-.0002-.0002-.0002-.0002-.0002-.0002-.0002-.0002-.0001-.0001-.0001-.0001-.0001-.0001-.0001-.0001-.0001-.0001-.0001-.0001-.0001-.0001-.0001-.0001-.0001-.0001-.0001-.0001-.0001-.0001-.0001-.0001-.0001-.0001-.0001-.0001-.0001-.0001-.0001-.0001-.0001-.0001-.0001-.0001-.0001-.0001-.0001-.0001-.0001-.0001-.0001-.0001V8.28v-.0001-.0002-.0002-.0002-.0002-.0002-.0002-.0002-.0002-.0002-.0002-.0002-.0002-.0002-.0002-.0002-.0001-.0001-.0001-.0001-.0001-.0001-.0001-.0001-.0001-.0001-.0001-.0001-.0001-.0001-.0001-.0001-.0001-.0001-.0001-.0001-.0001-.0001-.0001-.0001-.0002-.0002-.0002-.0002-.0002-.0002-.0002-.0001-.0001-.0001-.0001-.0001-.0001-.0001-.0001-.0001-.0001-.0001-.0001-.0001-.0001-.0001-.0001-.0001-.0001-.0001-.0001-.0002-.0002-.0002-.0002V8.27v-.0002-.0001-.0001-.0001-.0001-.0001-.0001-.0001-.0001-.0001-.0001-.0001-.0001-.0001-.0001-.0001-.0001-.0001-.0002-.0002-.0002-.0002-.0002-.0002-.0001-.0001-.0001-.0001-.0001-.0001-.0001-.0001-.0001-.0001-.0001-.0001-.0001-.0001-.0001-.0001-.0002-.0002-.0002-.0002-.0002-.0001-.0001-.0002-.0001-.0001-.0001-.0001-.0001-.0001-.0001-.0001-.0001-.0001-.0001-.0001-.0001-.0001-.0002-.0002-.0002-.0002-.0002-.0002-.0001-.0001-.0001-.0001-.0001-.0001-.0001-.0001-.0001-.0001-.0001-.0001V8.26 8.26v-.0001-.0001-.0001-.0001-.0001-.0002-.0002-.0002-.0002-.0002-.0002-.0002-.0002-.0001-.0001-.0001-.0001-.0001-.0001-.0001-.0001-.0001-.0001-.0001-.0001-.0001-.0001-.0001-.0001-.0001-.0001-.0001-.0001-.0001-.0001-.0001-.0001-.0002-.0002-.0002-.0002-.0002-.0002-.0002-.0002-.0002-.0002-.0002-.0002-.0002-.0001-.0002-.0001-.0001-.0001-.0001-.0001-.0001-.0002-.0001-.0001-.0001-.0001-.0001-.0001-.0001-.0001-.0001-.0001-.0001-.0001-.0001-.0001-.0001-.0001V8.25 8.25v-.0001-.0001-.0001-.0001-.0001-.0001-.0001-.0001-.0001-.0001-.0001-.0001-.0001-.0001-.0001-.0001-.0001-.0001-.0002-.0001-.0001-.0001-.0001-.0002-.0002-.0002-.0002-.0002-.0002-.0002-.0002-.0002-.0002-.0002-.0002-.0001-.0001-.0001-.0001-.0001-.0001-.0001-.0001-.0001-.0001-.0001-.0001-.0001-.0001-.0001-.0001-.0001-.0001-.0001-.0001-.0002-.0002-.0002-.0002-.0002-.0002-.0001-.0001-.0001-.0001-.0001-.0001-.0001-.0001-.0001-.0001-.0001-.0001h-40zm0 .051V8.3013h40V8.301 8.301v-.0001-.0001-.0001-.0001-.0001-.0001-.0001-.0001V8.3 8.3v-.0001-.0001-.0001-.0001-.0001-.0001-.0001-.0001-.0001-.0001-.0001-.0001-.0001-.0001-.0001-.0001-.0001-.0001-.0001-.0001-.0001-.0001-.0001-.0001-.0001-.0001-.0001-.0001-.0001-.0001-.0001-.0001-.0001-.0001-.0001-.0001-.0001-.0001-.0001-.0001-.0001-.0001-.0001-.0001-.0001-.0001-.0001-.0001-.0001-.0001-.0001-.0001-.0001-.0001-.0001-.0001-.0001-.0001-.0001-.0001-.0001-.0001-.0001-.0001-.0001-.0001-.0001-.0001-.0001-.0001-.0001-.0001-.0001-.0001-.0001-.0001-.0001-.0001-.0001-.0001-.0001-.0001-.0001h-40zm0 .0171c.0007 1.808.003 6.3663.0037 10.5117.0003 2.073.0003 4.0374-.0005 5.4997-.0004.7324-.001 1.3311-.0017 1.752-.0015.7883-.0056.4505.011.0111l39.9713 1.5159c.0194-.5111.0174-1.3693.0176-1.4509.0009-.4489.0014-1.0695.0018-1.8068.0008-1.477.0008-3.453.0005-5.5281-.0008-4.1507-.003-8.719-.0037-10.5196l-40 .015zm.012 17.7868c.0504-1.3487.3839-7.0419 5.2844-11.7661l27.7614 28.7977c6.3959-6.1657 6.8517-13.5358 6.9265-15.5403L7.0904 26.0956zm6.1257-12.5321c2.5391-2.1833 5.3548-3.3276 7.8066-3.8438a17.9617 17.9617 0 013.2499-.3784 18.6123 18.6123 0 011.3781.0165 19.227 19.227 0 011.1723.0933l.0374.0042.0187.002c.0093.0011.0186.0022-2.2412 19.8741-2.2599 19.8719-2.2506 19.873-2.2412 19.874l.0187.0021.0376.0042.076.0082a20.6794 20.6794 0 001.1687.0902 21.3784 21.3784 0 001.5836.0185 22.0436 22.0436 0 003.9831-.4672c3.0585-.644 6.683-2.0898 10.0306-4.9682L13.216 13.5635zm11.4218 15.7679c0-20-.0001-20-.0002-20h-.8659a17598.019 17598.019 0 01-9.2693-.0033 6059.4323 6059.4323 0 01-7.0526-.0079c-.975-.0019-1.7837-.004-2.3572-.0065-1.071-.0045-.613-.0123.0027.022L2.8697 49.2738c.9708.0541 7.1699.0514 11.6067.0543 2.5559.0016 5.0961.0025 6.9968.0029l2.2948.0004h.8695c.0002 0 .0003 0 .0003-20zM7.3768 9.5949c.4323.0744 2.526.4268 4.9377 1.6533 2.5656 1.3047 4.7743 3.2087 6.4016 5.5141l-32.679 23.067c4.9947 7.0759 11.8772 8.7249 14.5512 9.1853L7.3767 9.5949zm11.3437 7.1736c2.3488 3.3303 2.9087 6.5087 3.0797 7.9542.101.8542.1211 1.5949.1129 2.1832a17.3933 17.3933 0 01-.0336.8586 18.3357 18.3357 0 01-.0565.6866l-.0049.0477-.0024.0238a.58.58 0 00-.0013.0119c-.0006.0059-.0012.0119-19.8909-2.0861-19.8897-2.098-19.8903-2.092-19.8909-2.086l-.0013.0119-.0025.0241-.0049.0488a20.5475 20.5475 0 00-.029.3117 21.6768 21.6768 0 00-.0347.4666c-.0209.3292-.0374.704-.0432 1.1179a23.4328 23.4328 0 00.1602 3.0787c.2566 2.1694 1.0431 6.2715 3.9556 10.401l32.6877-23.0546zm3.203 9.6799V8.3149h-40v18.1335h40zm0-18.1335c0-6.8903-3.4119-14.004-10.2643-17.9989-2.709-1.5793-5.2465-2.2341-6.9821-2.5265a20.6504 20.6504 0 00-3.3671-.287 20.2916 20.2916 0 00-.7873.0133l-.0244.0009c-.0122.0004-.0243.0009.751 19.9859.7752 19.9849.7631 19.9854.751 19.9859l-.0244.0009-.049.0017a21.1275 21.1275 0 01-.301.0079 19.6652 19.6652 0 01-1.347-.0209 19.31 19.31 0 01-8.7653-2.6055c-2.6961-1.5718-5.3651-4.0124-7.2383-7.4338-1.8351-3.3519-2.3518-6.6277-2.3518-9.124h40zM1.2493-12.4974H.942v40h.3073v-40zm-.3073 0c-4.0375 0-8.3201 1.1918-12.0613 3.9057-3.5223 2.5551-5.491 5.674-6.5524 7.9455-1.8986 4.0635-1.9587 7.6901-1.9723 8.6367l39.9958.577c-.0109.7582-.045 3.9966-1.7842 7.7189-.9817 2.1011-2.8374 5.0611-6.1996 7.5001A19.477 19.477 0 01.942 27.5026v-40zM-19.646 8.279V26.816h40v-.007-.0072-.0076-.0079-.0081-.0085-.0087-.009-.0093-.0096-.0098-.0102-.0104-.0107-.0109-.0113-.0115-.0118-.0121-.0123-.0126-.0129-.0131-.0135-.0136-.014-.0142-.0145-.0147-.015-.0153-.0155-.0158-.016-.0163-.0165-.0168-.0171-.0173-.0176-.0178-.018-.0183-.0186-.0188-.019-.0193-.0195-.0198-.02-.0203-.0205-.0207-.021-.0212-.0214-.0217-.0219-.0221-.0224-.0226-.0228-.023-.0233-.0235-.0237-.024-.0241-.0244-.0246-.0249-.025-.0253-.0254-.0257-.0259-.0262-.0263-.0265-.0268-.0269-.0272-.0274-.0276-.0278-.0279-.0282-.0284-.0286-.0288-.029-.0292-.0294-.0296-.0297-.03-.0301-.0304-.0305-.0308-.0309-.0311-.0313-.0314-.0317-.0318-.0321-.0322-.0323-.0326-.0327-.033-.033-.0333-.0334-.0337-.0337-.034-.0341-.0343-.0345-.0346-.0348-.0349-.0351-.0353-.0354-.0356-.0358-.0359-.0361-.0362-.0364-.0365-.0367-.0368-.037-.0372-.0373-.0374-.0376-.0377-.0379-.038-.0381-.0383-.0385-.0386-.0387-.0388-.039-.0391-.0393-.0394-.0395-.0397-.0398-.0399-.04-.0402-.0403-.0404-.0405-.0407-.0408-.0409-.041-.0412-.0412-.0414-.0415-.0416-.0417-.0418-.042-.042-.0422-.0423-.0424-.0424-.0426-.0427-.0428-.0429-.043-.0431-.0432-.0433-.0434-.0435-.0436-.0436-.0438-.0439-.0439-.0441-.0441-.0442-.0443-.0444-.0445-.0445-.0447-.0447-.0448-.0449-.0449-.045-.0452-.0451-.0453-.0453-.0454-.0455-.0455-.0457-.0456-.0458-.0458-.0459-.0459-.046-.0461-.0461-.0462-.0462-.0463-.0464-.0464-.0465-.0465-.0465-.0467-.0466-.0467-.0468-.0468-.0469-.0469-.047-.0469-.0471-.0471-.0471-.0471-.0472-.0472-.0473-.0473-.0473-.0474-.0474-.0474-.0475-.0475-.0475-.0475-.0476-.0476-.0476-.0476-.0476-.0477-.0477-.0477-.0477-.0478-.0477-.0478-.0478-.0478-.0478-.0478-.0478-.0479-.0478-.0479-.0478-.0479-.0478-.0479-.0478-.0479-.0478-.0479-.0478-.0479-.0478-.0478-.0479-.0478-.0478-.0478-.0477-.0478-.0478-.0477-.0477-.0477-.0477-.0477-.0476-.0476-.0476-.0476-.0476-.0475-.0475-.0475-.0474-.0474-.0474-.0474-.0473-.0473-.0472-.0472-.0472-.0471-.0472-.047-.047-.047-.0469-.0469-.0469-.0468-.0467-.0467-.0467-.0466-.0465-.0465-.0465-.0464-.0463-.0463-.0462-.0462-.0461-.046-.046-.0459-.0459-.0457-.0458-.0456-.0456-.0455-.0455-.0453-.0454-.0452-.0451-.0451-.045-.045-.0448-.0448-.0447-.0446-.0445-.0444-.0444-.0443-.0441-.0441-.044-.044-.0438-.0437-.0437-.0435-.0435-.0433-.0433-.0431-.0431-.043-.0428-.0428-.0427-.0425-.0424-.0424-.0422-.0421-.0421-.0419-.0418-.0416-.0416-.0415-.0413-.0412-.0411-.041-.0408-.0408-.0406-.0405-.0404-.0402-.0401-.04-.0399-.0397-.0396-.0395-.0394-.0392-.0391-.0389-.0388-.0387-.0385-.0384-.0382-.0381-.038-.0378-.0377-.0375-.0374-.0372-.0371-.0369-.0368-.0367-.0364-.0364-.0361-.036-.0359-.0357-.0355-.0354-.0352-.0351-.0349-.0347-.0346-.0344-.0342-.0341-.0338-.0338-.0335-.0334-.0332-.033-.0329-.0326-.0325-.0323-.0322-.032-.0317-.0316-.0314-.0312-.031-.031-.0306-.0304-.0303-.0301-.0299-.0297-.0295-.0293-.0291-.029-.0287-.0285-.0283-.0281V9.1v-.0277-.0275-.0273-.027-.027-.0266-.0265-.0262-.026-.026-.0255-.0254-.0252-.025-.0247-.0245-.0244-.024-.024-.0236-.0234-.0232-.023-.0227-.0225-.0222-.0221-.0218-.0216-.0213-.0212-.0208-.0207-.0204h-40zm0 18.537c0 7.0631 2.9198 13.7052 8.5222 18.5136l26.0514-30.3534c1.2945 1.1111 2.8548 2.871 3.9933 5.3727 1.1362 2.4964 1.4331 4.81 1.4331 6.4671h-40zm8.5229 18.5142c3.7369 3.2069 7.6858 4.5776 10.4799 5.1692a23.6156 23.6156 0 003.691.4825c.5124.0259.9805.0325 1.3967.0278a21.3355 21.3355 0 00.9908-.034l.0627-.0037.031-.002.0154-.0009c.0076-.0005.0153-.001-1.2677-19.9598C2.9936 11.0505 3.0012 11.05 3.0089 11.0495a1.1482 1.1482 0 01.0153-.001l.0306-.0019.0614-.0036a19.742 19.742 0 01.3713-.018c.1663-.0065.3353-.0108.5069-.0128.342-.0038.7013.0019 1.0765.0209a16.3875 16.3875 0 012.5711.3338 16.4137 16.4137 0 017.2847 3.6087l-26.0499 30.3546zM4.2766 31.0093c0 20 0 20 .0002 20h.8491l2.2463-.0001 6.8747-.0002c5.0072-.0003 10.2022-.0009 10.668-.0022l-.1129-39.9999h-.0023l-.0063.0001h-.0215l-.0708.0001-.2291.0002-.7518.0004-2.4432.0006c-1.9686.0003-4.5136.0005-7.0325.0007l-6.873.0002-2.246.0001H4.2769c-.0001 0-.0002 0-.0002 20zm20.6383 19.9975c7.1039-.0201 13.8006-3.3355 18.3482-8.9023L12.2855 16.7986c2.687-3.2893 7.129-5.7765 12.5165-5.7917l.1129 39.9999zm18.3542-8.9097c3.2454-3.9767 4.4342-8.0956 4.913-10.5289a24.742 24.742 0 00.4252-3.3541 23.583 23.583 0 00.0387-1.2258 22.3696 22.3696 0 00-.0083-.7358 15.939 15.939 0 00-.0051-.1599l-.001-.0258a.6418.6418 0 00-.0005-.0127c-.0002-.0064-.0004-.0127-19.9855.7615-19.985.7742-19.9852.7678-19.9855.7615l-.0004-.0127-.001-.0253a23.4239 23.4239 0 01-.0049-.1519 18.8976 18.8976 0 01-.0072-.6113 16.42 16.42 0 01.0265-.8554c.0331-.5769.105-1.2796.2617-2.0757.2755-1.4 1.0286-4.2009 3.3446-7.0388l30.9897 25.2911z" fill="#fff" mask="url(#a)"/></svg>