<svg fill="none" xmlns="http://www.w3.org/2000/svg" viewBox="0 0 32 33">
  <circle cx="21.2" cy="11.33" fill="#fff" r="1.09"/>
  <circle cx="10.33" cy="11.33" fill="#fff" r="1.09"/>
  <circle cx="10.33" cy="24.35" fill="#fff" r="1.09"/>
  <circle cx="15.77" cy="26.52" fill="#fff" r="1.09"/>
  <circle cx="7.07" cy="17.77" fill="#fff" r="1.09"/>
  <circle cx="24.47" cy="17.77" fill="#fff" r="1.09"/>
  <circle cx="21.2" cy="24.35" fill="#fff" r="1.09"/>
  <path fill-rule="evenodd" clip-rule="evenodd" d="M20.92 29.06c.41-.2.9-.13 1.22.2l1.82 1.87c.27.27.71.27.98 0a.68.68 0 000-.95l-1.36-1.4c-.42-.43-.36-1.14.1-1.55A12.75 12.75 0 0028 17.61C28 10.65 22.52 5 15.77 5 9 5 3.54 10.65 3.54 17.61c0 3.82 1.64 7.24 4.23 9.55.45.4.51 1.11.1 1.55l-1.44 1.47a.68.68 0 00.98.95l1.87-1.93c.32-.33.82-.4 1.23-.2a11.88 11.88 0 0010.41.06zm-5.15-.23c6 0 10.87-5.02 10.87-11.22 0-6.19-4.87-11.2-10.87-11.2-6 0-10.88 5.01-10.88 11.2 0 6.2 4.87 11.22 10.88 11.22zM15 17.3V9.94a.78.78 0 011.56 0v8.18a.8.8 0 01-.8.8.76.76 0 01-.76-.75V17.3z" fill="#fff"/>
  <path fill="#fff" d="M15 6V2h1.5v4z"/>
  <rect x="8" y="2" width="15.5" height="1.5" rx=".75" fill="#fff"/>
</svg>
