<svg width="32" height="33" fill="none" xmlns="http://www.w3.org/2000/svg"><ellipse cx="21.2042" cy="11.3299" rx="1.0873" ry="1.0851" fill="#fff"/><ellipse cx="10.3312" cy="11.3299" rx="1.0873" ry="1.0851" fill="#fff"/><ellipse cx="10.3312" cy="24.3512" rx="1.0873" ry="1.0851" fill="#fff"/><ellipse cx="15.7677" cy="26.5215" rx="1.0873" ry="1.0851" fill="#fff"/><ellipse cx="7.0692" cy="17.7748" rx="1.0873" ry="1.0851" fill="#fff"/><ellipse cx="24.466" cy="17.7748" rx="1.0873" ry="1.0851" fill="#fff"/><ellipse cx="21.2042" cy="24.3512" rx="1.0873" ry="1.0851" fill="#fff"/><mask id="a" fill="#fff"><path fill-rule="evenodd" clip-rule="evenodd" d="M20.9215 29.0581c.4083-.1959.9011-.1283 1.217.1961l1.8259 1.875a.6817.6817 0 00.9766-.9511l-1.3567-1.3932c-.4259-.4374-.3615-1.1493.0977-1.5516C26.3238 24.9195 28 21.4688 28 17.6145 28 10.6477 22.5235 5 15.7678 5 9.0122 5 3.5356 10.6477 3.5356 17.6145c0 3.8143 1.6417 7.2332 4.236 9.5463.4528.4036.5133 1.11.0901 1.5446l-1.4341 1.4727a.6816.6816 0 00.9766.9511l1.8796-1.9302c.3186-.3272.8166-.3929 1.2264-.1914 1.5928.7831 3.3756 1.2214 5.2576 1.2214 1.8412 0 3.5875-.4195 5.1537-1.1709zm-5.1537-.2307c6.005 0 10.8731-5.0202 10.8731-11.2129 0-6.1927-4.8681-11.2129-10.8731-11.2129-6.005 0-10.873 5.0202-10.873 11.2129 0 6.1927 4.868 11.2129 10.873 11.2129zm-.7595-11.5294V9.9409a.7813.7813 0 111.5625 0v8.1817a.803.803 0 01-.8031.8031.7594.7594 0 01-.7594-.7594v-.8683z"/></mask><path fill-rule="evenodd" clip-rule="evenodd" d="M20.9215 29.0581c.4083-.1959.9011-.1283 1.217.1961l1.8259 1.875a.6817.6817 0 00.9766-.9511l-1.3567-1.3932c-.4259-.4374-.3615-1.1493.0977-1.5516C26.3238 24.9195 28 21.4688 28 17.6145 28 10.6477 22.5235 5 15.7678 5 9.0122 5 3.5356 10.6477 3.5356 17.6145c0 3.8143 1.6417 7.2332 4.236 9.5463.4528.4036.5133 1.11.0901 1.5446l-1.4341 1.4727a.6816.6816 0 00.9766.9511l1.8796-1.9302c.3186-.3272.8166-.3929 1.2264-.1914 1.5928.7831 3.3756 1.2214 5.2576 1.2214 1.8412 0 3.5875-.4195 5.1537-1.1709zm-5.1537-.2307c6.005 0 10.8731-5.0202 10.8731-11.2129 0-6.1927-4.8681-11.2129-10.8731-11.2129-6.005 0-10.873 5.0202-10.873 11.2129 0 6.1927 4.868 11.2129 10.873 11.2129zm-.7595-11.5294V9.9409a.7813.7813 0 111.5625 0v8.1817a.803.803 0 01-.8031.8031.7594.7594 0 01-.7594-.7594v-.8683z" fill="#fff"/><path d="M9.2838 29.199l2.8657 2.7906-2.8657-2.7906zm1.2264-.1914l1.7648-3.5896-1.7648 3.5896zm-3.106 2.1216l-2.8657-2.7907 2.8657 2.7907zm-.9766-.9511l-2.8657-2.7907 2.8657 2.7907zm17.1567-1.3932l-2.8657 2.7907 2.8657-2.7907zm.0977-1.5516l-2.6355-3.009 2.6355 3.009zm-15.9103-.0725l-2.662 2.9856 2.662-2.9856zm.09 1.5446l-2.8656-2.7907 2.8656 2.7907zm17.0793 1.4727l2.8657-2.7907-2.8657 2.7907zm-.9766.9511l-2.8657 2.7906 2.8657-2.7906zm-1.8259-1.875l2.8657-2.7906-2.8657 2.7906zm-1.217-.1961l-1.7302-3.6065 1.7302 3.6065zm-1.6487 2.9868l1.8259 1.8749 5.7314-5.5813-1.8259-1.8749-5.7314 5.5813zm8.5339-4.6575L26.45 25.9942l-5.7314 5.5814 1.3567 1.3932 5.7314-5.5814zm-1.4892 2.8549C29.8075 27.1855 32 22.6466 32 17.6145h-8c0 2.6766-1.1599 5.0389-2.9535 6.6098l5.271 6.018zM32 17.6145C32 8.5555 24.8478 1 15.7678 1v8C20.1992 9 24 12.7399 24 17.6145h8zM15.7678 1C6.6878 1-.4644 8.5555-.4644 17.6145h8C7.5356 12.7399 11.3365 9 15.7678 9V1zM-.4644 17.6145c0 4.9798 2.1474 9.4767 5.5741 12.5319l5.3239-5.9712c-1.762-1.571-2.898-3.9119-2.898-6.5607h-8zm5.4605 8.3002l-1.4342 1.4727 5.7313 5.5813 1.4342-1.4727-5.7313-5.5813zm5.2738 8.0051l1.8796-1.9302-5.7314-5.5813-1.8796 1.9302 5.7314 5.5813zm-1.5245-1.3226a15.8778 15.8778 0 007.0224 1.6318v-8c-1.2535 0-2.4341-.2905-3.4928-.811l-3.5296 7.1792zm7.0224 1.6318c2.4558 0 4.792-.5609 6.8839-1.5645l-3.4604-7.2129c-1.0405.4992-2.1969.7774-3.4235.7774v8zm0-1.4016c8.3293 0 14.8731-6.928 14.8731-15.2129h-8c0 4.1005-3.1924 7.2129-6.8731 7.2129v8zm14.8731-15.2129c0-8.285-6.5438-15.2129-14.8731-15.2129v8c3.6807 0 6.8731 3.1124 6.8731 7.2129h8zM15.7678 2.4016c-8.3293 0-14.873 6.928-14.873 15.2129h8c0-4.1005 3.1923-7.2129 6.873-7.2129v-8zM.8948 17.6145c0 8.2849 6.5437 15.2129 14.873 15.2129v-8c-3.6807 0-6.873-3.1124-6.873-7.2129h-8zm11.676-.3165v.5426h8v-.5426h-8zm0 .5426v.282h8v-.282h-8zm6.4375.3257v-.3257h-8v.3257h8zm0-.3257v-.5426h-8v.5426h8zm0-.5426v-3.7979h-8v3.7979h8zm0-3.7979V9.9409h-8v3.5592h8zm-6.4375-3.5592v3.5592h8V9.9409h-8zm0 3.5592v3.7979h8v-3.7979h-8zm3.2187-8.3405c-2.6406 0-4.7812 2.1407-4.7812 4.7813h8c0 1.7777-1.4411 3.2187-3.2188 3.2187v-8zm-3.2187 12.963c0-1.7656 1.4313-3.1969 3.1969-3.1969v8c2.6527 0 4.8031-2.1504 4.8031-4.8031h-8zm-.4213 13.867c-.9926 1.0194-2.3974 1.1026-3.4041.6076l3.5296-7.1792c-1.8263-.898-4.227-.6834-5.8569.9903l5.7314 5.5813zm-8.5877 1.9302c1.8379 1.8872 4.8703 1.8872 6.7081 0l-5.7314-5.5813c1.3027-1.3377 3.4521-1.3377 4.7548 0l-5.7315 5.5813zm0-6.5324c-1.77 1.8177-1.77 4.7147 0 6.5324l5.7315-5.5813c1.2547 1.2884 1.2546 3.3418 0 4.6302l-5.7314-5.5813zM26.45 25.9942c1.3427 1.3789.944 3.3052-.1325 4.2481l-5.271-6.018c-1.995 1.7474-2.5225 5.0976-.3279 7.3513l5.7314-5.5814zM15.7895 13.1596c-1.7776 0-3.2187-1.441-3.2187-3.2187h8c0-2.6406-2.1406-4.7813-4.7813-4.7813v8zM5.1097 30.1464c-1.0634-.9481-1.447-2.8625-.1136-4.2317l5.7313 5.5813c2.1797-2.2383 1.6751-5.5654-.2938-7.3208l-5.3239 5.9712zm22.697 3.7734c1.7701-1.8177 1.7701-4.7147 0-6.5324l-5.7314 5.5814c-1.2547-1.2885-1.2547-3.3419 0-4.6303l5.7314 5.5813zm-6.708 0c1.8378 1.8872 4.8702 1.8872 6.708 0l-5.7314-5.5813c1.3027-1.3377 3.4521-1.3377 4.7548 0l-5.7314 5.5813zm-5.331-18.9941c1.7897 0 3.2406 1.4508 3.2406 3.2406h-8c0 2.6285 2.1308 4.7594 4.7594 4.7594v-8zm9.2365 11.5379c-1.6161-1.6596-3.9925-1.8853-5.8129-1.012l3.4604 7.2129c-1.0037.4816-2.3947.391-3.3789-.6196l5.7314-5.5813z" fill="#fff" mask="url(#a)"/><path fill="#fff" d="M15 6V2h1.5v4z"/><rect x="8" y="2" width="15.5" height="1.5" rx=".75" fill="#fff"/></svg>