<svg id="eat" fill="none" xmlns="http://www.w3.org/2000/svg" viewBox="0 0 23 30">
    <path d="M18.19 30c-.45 0-.82-.28-.82-.63V.63c0-.34.37-.62.82-.62.45 0 .81.28.81.63v28.75c0 .34-.36.62-.81.62z" fill="#fff"/>
    <path d="M22.3 19.38h-4.22c-.39 0-.7-.28-.7-.63s.31-.63.7-.63h3.51C21.5 7.63 19 3.72 18 3.5c-.39 0-.63-2.53-.63-2.88 0-.34.32-.62.71-.62C21.02 0 23 9.7 23 18.75c0 .35-.31.63-.7.63zM6 11.25c-2.76 0-5-1.96-5-4.38V.63c0-.34.32-.62.71-.62.4 0 .89.28.89.63v6.25C2.6 8.6 4.03 9.5 6 9.5s3.5-1 3.5-2.5V.62c0-.34.4-.62.79-.62.4 0 .71.28.71.63v6.25c0 2.4-2.24 4.37-5 4.37z" fill="#fff"/>
    <path d="M6 30c-.55 0-1-.28-1-.63V.63C5 .28 5.45 0 6 0s1 .28 1 .63v28.75c0 .34-.45.62-1 .62z" fill="#fff"/>
</svg>
