<svg width="23" height="30" fill="none" xmlns="http://www.w3.org/2000/svg"><mask id="a" fill="#fff"><path d="M18.1875 30c-.4493 0-.8125-.2794-.8125-.625V.625c0-.3456.3632-.625.8125-.625S19 .2794 19 .625v28.75c0 .3456-.3632.625-.8125.625z"/></mask><path d="M18.1875 28c.1771 0 .4121.0529.6447.2319.2354.1811.5428.5685.5428 1.1431h-4c0 1.9063 1.7781 2.625 2.8125 2.625v-4zm1.1875 1.375V.625h-4v28.75h4zm0-28.75c0 .5746-.3074.962-.5428 1.1431-.2326.179-.4676.2319-.6447.2319v-4c-1.0344 0-2.8125.7187-2.8125 2.625h4zM18.1875 2c-.1771 0-.4121-.053-.6447-.2319C17.3074 1.5871 17 1.1996 17 .625h4C21-1.2813 19.2219-2 18.1875-2v4zM17 .625v28.75h4V.625h-4zm0 28.75c0-.5746.3074-.962.5428-1.1431.2326-.179.4676-.2319.6447-.2319v4C19.2219 32 21 31.2813 21 29.375h-4z" fill="#fff" mask="url(#a)"/><path d="M19.2218 2.1519c.344.6029.673 1.3973.9764 2.3534a7.7281 7.7281 0 00-.3963-.6641c-.2203-.3282-.4525-.6082-.6945-.8258-.1266-.1138-.2761-.2288-.4465-.322-.0451-.1679-.0912-.396-.1338-.6606a15.8697 15.8697 0 01-.116-.8964c.2054.1465.4828.4406.8107 1.0155z" stroke="#fff" stroke-width="2"/><mask id="b" fill="#fff"><path d="M6 11.25c-2.7564 0-5-1.9631-5-4.375V.625C1 .2794 1.3193 0 1.7143 0c.395 0 .8824.2794.8824.625v6.25C2.5967 8.5981 4.0307 9.5 6 9.5c1.9693 0 3.5-1 3.5-2.5V.625c0-.3456.3907-.625.7857-.625.395 0 .7143.2794.7143.625v6.25c0 2.4119-2.2436 4.375-5 4.375z"/></mask><path d="M6 9.25c-1.911 0-3-1.3102-3-2.375h-4c0 3.759 3.3982 6.375 7 6.375v-4zM3 6.875V.625h-4v6.25h4zm0-6.25C3 1.6264 2.1646 2 1.7143 2v-4C.4739-2-1-1.0677-1 .625h4zM1.7143 2c-.2236 0-.3822-.062-.5126-.148-.0756-.05-.605-.4231-.605-1.227h4c0-1.1495-.7732-1.8352-1.1912-2.1112C2.9327-1.7984 2.333-2 1.7143-2v4zM.5967.625v6.25h4V.625h-4zm0 6.25c0 1.4933.658 2.7531 1.7849 3.5747C3.4337 11.2169 4.744 11.5 6 11.5v-4c-.7133 0-1.1047-.1678-1.2619-.2824-.0676-.0493-.0906-.086-.1016-.1077-.011-.0216-.0398-.0877-.0398-.2349h-4zM6 11.5c1.2988 0 2.5968-.3264 3.6307-1.0457C10.6995 9.7107 11.5 8.5151 11.5 7h-4c0 .0225-.0026.0245-.006.0304-.0076.0132-.0427.0673-.1477.1403C7.1225 7.3265 6.6705 7.5 6 7.5v4zM11.5 7V.625h-4V7h4zm0-6.375c0 .621-.3463.9974-.5363 1.1435-.1969.1514-.4276.2315-.678.2315v-4a2.9046 2.9046 0 00-1.76.5973C8.0418-1.0306 7.5-.3417 7.5.625h4zM10.2857 2C9.8354 2 9 1.6264 9 .625h4C13-1.0677 11.5261-2 10.2857-2v4zM9 .625v6.25h4V.625H9zm0 6.25C9 7.9398 7.911 9.25 6 9.25v4c3.6018 0 7-2.616 7-6.375H9z" fill="#fff" mask="url(#b)"/><mask id="c" fill="#fff"><path d="M6 30c-.553 0-1-.2794-1-.625V.625C5 .2794 5.447 0 6 0c.553 0 1 .2794 1 .625v28.75c0 .3456-.447.625-1 .625z"/></mask><path d="M6 24c.665 0 1.5558.1561 2.4726.7291C9.3084 25.2515 11 26.7375 11 29.375H-1c0 2.9831 1.9151 4.7817 3.1126 5.5301C3.3912 35.7042 4.782 36 6 36V24zm5 5.375V.625H-1v28.75h12zm0-28.75c0 2.6375-1.6916 4.1235-2.5274 4.6459C7.5558 5.8439 6.6651 6 6 6V-6c-1.218 0-2.6088.2958-3.8874 1.0949C.9151-4.1567-1-2.3581-1 .625h12zM6 6c-.665 0-1.5558-.1561-2.4726-.7291C2.6916 4.7485 1 3.2625 1 .625h12c0-2.9831-1.9151-4.7817-3.1126-5.5301C8.6088-5.7041 7.218-6 6-6V6zM1 .625v28.75h12V.625H1zm0 28.75c0-2.6375 1.6916-4.1235 2.5274-4.6459C4.4442 24.1561 5.3349 24 6 24v12c1.218 0 2.6088-.2958 3.8874-1.0949C11.0849 34.1567 13 32.3581 13 29.375H1z" fill="#fff" mask="url(#c)"/></svg>