<svg id="mobile" xmlns="http://www.w3.org/2000/svg" viewBox="0 0 190.4 37.6">
    <path d="M6.1 20.7l.1-2.3a136.17 136.17 0 0120.2-1.3 10.87 10.87 0 01-.1 1.8 27.45 27.45 0 016-1.8A16.69 16.69 0 00.2 20.4c2.2.1 5.9.3 5.9.3zm21.1 3.5c-1.2 1.3-1.4 1.2-1.4 3.5v9.2A16.62 16.62 0 0033.2 23a15.53 15.53 0 00-.3-3.1 40.25 40.25 0 00-5.7 4.3zM6.4 25.7s-3.8-1.4-5.2-1.8L0 23.6a16.65 16.65 0 008.7 14z" fill="#fdc305"/>
    <path d="M26.3 17.1A95.5 95.5 0 0024.9.6s-.2-1.2-.9-.2a15.28 15.28 0 00-1.2 3.9 77.62 77.62 0 00-12.8.3C9.2 2 7.9.8 7.2 1s-.7 3.4-.7 3.4l-.4 14.1a137.18 137.18 0 0120.2-1.4z" fill="#f06351"/>
    <path d="M12.4 14c0-.1 1 .7 1.4.9s.6.4.6.6-.3.3-.6.3-.9-.1-1-.3H14a9.24 9.24 0 01-1.6-1.5zm7.5.1a12.67 12.67 0 01-1.1 1.3c0 .1-.2.3.2.3a3 3 0 001.2-.3c.1-.1.1-.2-.1-.2a3.75 3.75 0 00-1 .1l.8-1.2zm-3.1 6.1a2.79 2.79 0 001.1-1c.3-.7 0-.9-.4-1a2.49 2.49 0 00-1.7.3.68.68 0 00-.1 1 4.13 4.13 0 001.1.7z"/>
    <path d="M16.3 21.5a1.79 1.79 0 01-.5.6 1.53 1.53 0 01-1 .4 3.31 3.31 0 01-1.5-.4 2.18 2.18 0 01-.5-.4 1.73 1.73 0 00-.4-.3s.7 4.1 2.6 4.7 2.1-.7 2.2-1.1a6 6 0 00-.8-3.2c.1-.4 0-.2-.1-.3z" fill="#f06351"/>
    <path d="M14.7 22.6a3.39 3.39 0 01-2.3-1.4V21h.2s1 1.3 2.1 1.3a1.94 1.94 0 001.6-1l.1-.2.1.2s.4.8 1 .8 1.1-.4 1.6-1.3c0-.1.1-.1.2 0s.1.1 0 .2a2.39 2.39 0 01-1.9 1.4 1.37 1.37 0 01-1.1-.8 1.82 1.82 0 01-1.6 1z"/>
    <path d="M26.2 18.9a60.38 60.38 0 00-5.1 5.2 35.31 35.31 0 01-5.2 4.9c-.2-.5-1.6-1.5-1.6-1.5s-3.1-2.1-5.2-3.8c-1.2-1-2.3-2.2-3.1-3-.3 0-1.1-.1-2-.1a22.38 22.38 0 0012 8.8c.9-.1 3.3-1.9 5.1-3.3a46.88 46.88 0 005.9-5.9 5.75 5.75 0 001.1-2z" fill="#f06351"/>
    <path d="M91.2 29.8a7 7 0 01-1.2-4.4v-6.3a7 7 0 011.2-4.4q1.2-1.5 4.2-1.5c1.9 0 3.2.4 4 1.3a5.41 5.41 0 011.2 3.8v1.5h-4V18a6.27 6.27 0 00-.2-1.6 1 1 0 00-1-.5c-.5 0-1 .2-1.1.6a3.51 3.51 0 00-.3 1.6v8.3a3.51 3.51 0 00.3 1.6 1.06 1.06 0 001.1.6.92.92 0 001-.6 3.66 3.66 0 00.2-1.6v-1.8h3.9v1.5a6.05 6.05 0 01-1.2 3.9 5.09 5.09 0 01-4 1.4c-1.9-.1-3.3-.6-4.1-1.6zm14-16.4h4.5L113 31h-3.6l-.6-3.7h-2.6l-.6 3.7h-3.7zm3.2 11.6l-.9-6.9-.9 6.9zm7.4-8.7h-2.7v-2.9h9.3v2.9h-2.7V31h-4V16.3zm13.7-2.9h6.9v1.8H132V21h3.6v1.7H132v6.4h4.5v1.8h-7zm9 0h1.7l5.1 11.7V13.4h2.1V31h-1.6l-5.1-12v12h-2.1V13.4zm11.3 0h6.9v1.8h-4.4V21h3.6v1.7h-3.6v6.4h4.5v1.8h-7zm9 0h3.6a6.36 6.36 0 014 1.1c.9.7 1.3 1.9 1.3 3.6 0 2.3-.7 3.6-2.2 4.1L168 31h-2.4l-2.3-8.3h-1.9V31h-2.5zm3.4 7.6a3.52 3.52 0 002.3-.6 2.88 2.88 0 00.7-2.3 7.18 7.18 0 00-.2-1.7 1.34 1.34 0 00-.9-.9 4 4 0 00-1.7-.3h-1.1V21zm8.6 8.7a7.84 7.84 0 01-1.1-4.5v-5.8a10.92 10.92 0 01.4-3.4 3.82 3.82 0 011.5-2 5 5 0 012.9-.7 4.89 4.89 0 013.6 1.2 5.86 5.86 0 011.1 3.9v.7h-2.3v-.6a8.44 8.44 0 00-.2-1.9 1.26 1.26 0 00-.7-1 2 2 0 00-1.4-.4 2.07 2.07 0 00-1.5.5 2.4 2.4 0 00-.7 1.2 12.17 12.17 0 00-.1 2.1v6.5a6.86 6.86 0 00.5 2.9 2 2 0 001.9.9 1.87 1.87 0 001.9-1 7.6 7.6 0 00.5-3.1V24h-2.3v-1.7h4.5V31h-1.6l-.2-2a3.13 3.13 0 01-3.2 2.2 4 4 0 01-3.5-1.5zm13.5-4.9l-3.9-11.4h2.3l2.7 8.5 2.7-8.5h2.3l-3.8 11.4V31h-2.4v-6.2z" fill="#111"/>
  </svg>
