<svg xmlns="http://www.w3.org/2000/svg" viewBox="0 0 202 59.48">
    <defs>
      <clipPath id="a">
        <path fill="none" d="M0 0h201.99v59.48H0z"/>
      </clipPath>
    </defs>
    <g clip-path="url(#a)">
      <path d="M59.88 24a25.61 25.61 0 10-27.37 35.2c-.58-2.09-1.17-4.4-1.69-6.85a32.45 32.45 0 004.76 2.55s.12 2.16.28 4.57a25.78 25.78 0 005.33-.47 1.94 1.94 0 010-.76c.29-1.87 1.09-5.24 1.25-7.41a15.36 15.36 0 002.9-3.71l-.06.44c-.55 4.26-1.7 8.81-2.4 10.07a5.91 5.91 0 01-.83 1.15A25.65 25.65 0 0059.88 24zm-1.47 3.79c-.44.43-1.35.72-1.5-.58S56.72 25 56.72 25s-1.93-3.43-2.65-3.47-5.83 3.47-7.18 5c-1.17 1.29-1.4 1.2-1.4 3.47 0 1.71.22 8.17.1 13.11l-8.15 2.17a63.11 63.11 0 01-7.8 1.72l-1-5.83h-.14L25.93 28s-3.81-1.44-5.21-1.83a3.76 3.76 0 00-4 .63 4.89 4.89 0 00-1.28 1.74 4.94 4.94 0 00-.44 2.11 7.25 7.25 0 01.48 1.45c0 .48-1.2.43-2 .43s-.92-1.44-.29-3.13A22.67 22.67 0 0115 25.66a11.83 11.83 0 012.07-2.89s.14-.34 1.25-.24 7.28.47 7.28.47v-2.27a142.77 142.77 0 0120.24-1.34v1.83a22.5 22.5 0 018.14-2 .91.91 0 01.43.1 1 1 0 01.34.29c.34.43 2.41 3 2.65 3.37a28.59 28.59 0 011.83 3 6.22 6.22 0 01-.87 1.84z" fill="#fdc305"/>
      <path d="M56.46 21.67l1 1.29a28.59 28.59 0 011.83 3 6.11 6.11 0 01-.86 1.78c-.44.43-1.35.72-1.5-.58S56.72 25 56.72 25s-1.93-3.43-2.65-3.47-5.83 3.47-7.18 5c-1.17 1.29-1.4 1.2-1.4 3.47 0 1.5.17 6.65.13 11.23 1.81.2 4.47.7 5.27 1.88 0 0-.29-7.18 7.81-3.42 0 0 .28-9.79 11.46-7.28a43.82 43.82 0 00-13.7-10.74zM45.93 19.35a90.73 90.73 0 00-1.4-16.53s-.15-1.3-.87-.24a14.32 14.32 0 00-1.2 4 71.32 71.32 0 00-12.82.34c-.82-2.75-2.22-4-2.89-3.67S26 6.53 26 6.53l-.33 14.16a143 143 0 0120.26-1.34z" fill="#f06351"/>
      <path d="M45.35 47.12c.13-1.07.2-2.49.24-4.06l-8.15 2.17a65.16 65.16 0 01-7.8 1.77l1.11 5a.57.57 0 00.07.33 32.45 32.45 0 004.76 2.55 42.81 42.81 0 006.88-4.13v.06a15.22 15.22 0 002.89-3.69z" fill="#e55645"/>
      <path d="M32 16.22c-.05-.1 1 .68 1.41.92s.61.42.61.59-.26.34-.62.34a1.72 1.72 0 01-1-.26c-.08-.14.6 0 .94 0h.29A8.19 8.19 0 0132 16.22zM39.5 16.33s-1 1.28-1.09 1.34-.17.34.19.29a8.61 8.61 0 001.22-.28c.11-.06.07-.2-.12-.18s-.68.05-1 .11l.85-1.27s.03-.12-.05-.01zM36.36 22.44a2.3 2.3 0 001.09-1c.28-.66 0-.91-.44-1a2.44 2.44 0 00-1.75.34.59.59 0 000 1 5.35 5.35 0 001.1.66z"/>
      <path d="M36 23.7a1.92 1.92 0 01-.46.6 1.71 1.71 0 01-1 .38 2.19 2.19 0 01-1.54-.44 2.08 2.08 0 01-.53-.45 1 1 0 00-.36-.25s.75 4.11 2.57 4.77 2.16-.76 2.21-1.14a5.59 5.59 0 00-.82-3.24c0-.3-.02-.1-.07-.23z" fill="#f06351"/>
      <path d="M34.3 24.84a3.6 3.6 0 01-1.3-.47 3.5 3.5 0 01-1-1 .15.15 0 010-.2H32.15a3.31 3.31 0 00.92.87 3.42 3.42 0 001.19.44 2.21 2.21 0 00.94-.3 2.13 2.13 0 00.7-.7l.14-.19.1.22s.38.76 1 .8 1.06-.42 1.63-1.29a.15.15 0 01.09-.06.14.14 0 01.14.04.15.15 0 01.06.09.14.14 0 010 .11q-1 1.47-1.89 1.41a1.47 1.47 0 01-.64-.24 1.41 1.41 0 01-.53-.47 2.26 2.26 0 01-1.7.94z"/>
      <path d="M36.26 38.3a3.75 3.75 0 10-3.75-3.75 3.75 3.75 0 003.75 3.75z" fill="#fdc305"/>
      <path d="M41.23 31.5l-3.13 1.31 1.15-5.63-7.5 9.76 3.13-1.31-1.15 5.64zm-7.39 3.83L38 29.92l-.81 4 2-.82L35 38.52l.81-4zM32.44 33.86a1.12 1.12 0 10-1.12-1.12 1.12 1.12 0 001.12 1.12zM39 37.92a.79.79 0 10-.79-.79.79.79 0 00.79.79zM39.92 35.75a.35.35 0 10-.35-.35.35.35 0 00.35.35z" fill="#111"/>
      <path d="M45.88 21.16a56.87 56.87 0 00-5.09 5.21 32 32 0 01-5.31 4.9c-.22-.53-1.63-1.52-1.63-1.52s-3.14-2.15-5.2-3.84a32.94 32.94 0 01-3.14-3l-2-.11a22.65 22.65 0 0012 8.84c.86-.14 3.28-1.87 5.09-3.28a57.73 57.73 0 006-5.91 6.41 6.41 0 001.14-2c-1.14.38-1.86.71-1.86.71z" fill="#f06351"/>
      <path d="M65.22 3.5l-8.46 9.44-1.22-2L63.69 0zM62.65 17.26l5.54-4.11-.78-3.74L62 14.22zM59.92 49.37l6.13 3.18 3-2.34-6.69-2.75zM2 6l3-3.39 9.29 9-1.22 2.28zM7.38 16.28l-4.7-3.13L.28 17l5.15 2.4zM13.91 52.55L9.36 55.9l2.8 3.58 4-4z" fill="#fdc305"/>
      <path d="M25.93 28s-3.81-1.44-5.21-1.83a3.76 3.76 0 00-4 .63 4.89 4.89 0 00-1.28 1.74 4.94 4.94 0 00-.44 2.11 7.25 7.25 0 01.48 1.45c0 .48-1.2.43-2 .43s-.92-1.44-.29-3.13A22.67 22.67 0 0115 25.66c-5.45 2.84-15 9.4-15 9.4a46.7 46.7 0 018.19.24c5.25.53 5 4.67 5 4.67a38.65 38.65 0 015.63-1.11c2.12-.14 2.27 2.12 2.27 2.12l.53 3.86a18 18 0 012.65-2.36 6.07 6.07 0 014.38-1.3z" fill="#f06351"/>
      <path d="M85.66 42a8.31 8.31 0 01-1.4-5.19v-7.5a8.46 8.46 0 011.38-5.24c.93-1.19 2.51-1.79 4.75-1.78s3.76.53 4.55 1.57a6.7 6.7 0 011.33 4.49v1.76h-4.14V28.2a10.85 10.85 0 00-.13-1.5 1.65 1.65 0 00-.47-.95 1.44 1.44 0 00-.54-.3 1.57 1.57 0 00-.61-.07 1.45 1.45 0 00-.87.14 1.43 1.43 0 00-.63.61 5.49 5.49 0 00-.34 2.2v9.52a4.75 4.75 0 00.39 2.2 1.45 1.45 0 00.62.58 1.47 1.47 0 00.83.15 1.37 1.37 0 00.82-.14 1.4 1.4 0 00.58-.6 5.82 5.82 0 00.31-2.19v-2h4.14v1.73A7.25 7.25 0 0195 42.19c-.88 1.1-2.4 1.64-4.56 1.64s-3.85-.6-4.78-1.83zM101.91 22.58h4.74l4 21h-3.94l-.71-4.64h-3.32l-.8 4.61h-4zm3.65 13.72l-1.26-8.44-1.25 8.44zM113.72 25.74h-3.24v-3.16h10.72v3.16H118v17.81h-4.29z" fill="#111"/>
      <path d="M129.61 22.58h8.13v2.18h-5.2v6.93h4.22v2.07h-4.22v7.69h5.25v2.1h-8.18zM140.15 22.58h2l6 13.93V22.58h2.44v21h-1.87l-6-14.32v14.29h-2.48zM153.82 22.58h8.12v2.18h-5.2v6.93H161v2.07h-4.22v7.69H162v2.1h-8.18zM164.35 22.58h4.22a7 7 0 014.67 1.31c1 .87 1.49 2.29 1.49 4.26q0 4-2.59 4.89l3 10.51h-2.84l-2.75-9.84h-2.27v9.84h-2.93zm4 9a3.9 3.9 0 002.7-.76 3.57 3.57 0 00.69-1.27 3.52 3.52 0 00.13-1.44 5.88 5.88 0 00-.29-2 1.9 1.9 0 00-.39-.64 1.76 1.76 0 00-.61-.44 4.65 4.65 0 00-2.05-.35h-1.29v6.94zM178.67 42a9.2 9.2 0 01-1.27-5.35v-7a13.51 13.51 0 01.5-4 4.46 4.46 0 011.74-2.41 5.91 5.91 0 013.36-.84 5.22 5.22 0 012.25.28 5.11 5.11 0 011.93 1.2 7 7 0 011.28 4.63v.78h-2.75v-.65a11.29 11.29 0 00-.18-2.32 2 2 0 00-.76-1.23 3 3 0 00-1.72-.41 2.31 2.31 0 00-2.58 2 14.82 14.82 0 00-.17 2.49V37a7.47 7.47 0 00.59 3.46 2.89 2.89 0 001 .79 2.83 2.83 0 001.25.26 3 3 0 001.24-.31 2.87 2.87 0 001-.83 8.13 8.13 0 00.61-3.65v-1.48h-2.66v-2.07h5.3v10.38h-1.83l-.29-2.41a3.71 3.71 0 01-3.73 2.67 4.67 4.67 0 01-4.11-1.81zM194.69 36.15l-4.53-13.57h2.72l3.21 10.12 3.16-10.12H202l-4.5 13.57v7.4h-2.8z" fill="#444"/>
    </g>
  </svg>
