<svg class="logo">
  <style>
    .logo__mobile {
      @media (min-width: $tablet-width) {
      display: none;
      }
    }

    .logo__tablet {
      display: none;

      @media (min-width: 768px) {
        display: block;
      }

      @media (min-width: 1440px) {
        display: none;
      }
    }

    .logo__desktop {
      display: none;

      @media (min-width: 1440px) {
        display:block;
      }
    }
  </style>

    <!-- logo mobile -->

  <g class="logo__mobile" xmlns="http://www.w3.org/2000/svg" viewBox="0 0 190.4 37.6" xml:space="preserve">
    <style>
      .st1{fill:#f06351}
    </style>
    <path d="M6.1 20.7l.1-2.3c6.7-.9 13.4-1.4 20.2-1.3 0 .6 0 1.2-.1 1.8 0 0 2.9-1.3 6-1.8-2.4-6.3-8.5-10.8-15.6-10.8C8.4 6.3 1.5 12.4.2 20.4c2.2.1 5.9.3 5.9.3zm21.1 3.5c-1.2 1.3-1.4 1.2-1.4 3.5v9.2a16.62 16.62 0 007.1-17c-1.7 1.1-4.7 3.2-5.7 4.3zM6.4 25.7s-3.8-1.4-5.2-1.8L0 23.6c.2 6 3.7 11.3 8.7 14L6.4 25.7z" fill="#fdc305"/>
    <path class="st1" d="M26.3 17.1C26.4 8.6 24.9.6 24.9.6s-.2-1.2-.9-.2c-.7 1.1-1.2 3.9-1.2 3.9-7.4-.4-12.8.3-12.8.3C9.2 2 7.9.8 7.2 1c-.7.3-.7 3.4-.7 3.4l-.4 14.1c6.7-1 13.5-1.4 20.2-1.4z"/>
    <path d="M12.4 14c0-.1 1 .7 1.4.9s.6.4.6.6c0 .2-.3.3-.6.3s-.9-.1-1-.3H14c.1.1-1.3-1-1.6-1.5zm7.5.1s-1 1.3-1.1 1.3c0 .1-.2.3.2.3s1.1-.2 1.2-.3.1-.2-.1-.2-.7 0-1 .1l.8-1.2s.1-.1 0 0zm-3.1 6.1s.8-.4 1.1-1c.3-.7 0-.9-.4-1-.5-.1-1.3 0-1.7.3-.4.4-.3.7-.1 1 .2.2.8.6 1.1.7z"/>
    <path class="st1" d="M16.3 21.5s-.2.4-.5.6c-.2.2-.6.4-1 .4-.6 0-1.1-.2-1.5-.4-.2-.1-.4-.3-.5-.4-.2-.2-.4-.3-.4-.3s.7 4.1 2.6 4.7c1.8.6 2.1-.7 2.2-1.1 0-.3 0-2.1-.8-3.2.1-.4 0-.2-.1-.3z"/>
    <path d="M14.7 22.6c-1.3 0-2.3-1.4-2.3-1.4V21h.2s1 1.3 2.1 1.3c.6 0 1.1-.3 1.6-1l.1-.2.1.2s.4.8 1 .8c.5 0 1.1-.4 1.6-1.3 0-.1.1-.1.2 0 .1 0 .1.1 0 .2-.6 1-1.3 1.4-1.9 1.4s-.9-.5-1.1-.8c-.4.7-1 1-1.6 1z"/>
    <path class="st1" d="M26.2 18.9s-2.5 2.2-5.1 5.2-5.2 4.9-5.2 4.9c-.2-.5-1.6-1.5-1.6-1.5s-3.1-2.1-5.2-3.8c-1.2-1-2.3-2.2-3.1-3-.3 0-1.1-.1-2-.1 4.7 7 12 8.8 12 8.8.9-.1 3.3-1.9 5.1-3.3 1.8-1.4 4.8-4.5 5.9-5.9.6-.7.9-1.4 1.1-2l-1.9.7z"/>
    <path d="M1.2 19.6c-.8-1-1.2-2.5-1.2-4.4V8.9C0 7 .4 5.5 1.2 4.5S3.4 3 5.4 3c1.9 0 3.2.4 4 1.3.8.9 1.2 2.1 1.2 3.8v1.5h-4V7.8c0-.7-.1-1.2-.2-1.6-.1-.3-.5-.5-1-.5s-1 .2-1.1.6c-.2.4-.3.9-.3 1.6v8.3c0 .7.1 1.2.3 1.6.2.4.5.6 1.1.6.5 0 .9-.2 1-.6.2-.4.2-.9.2-1.6v-1.8h3.9v1.5c0 1.6-.4 2.9-1.2 3.9-.8.9-2.1 1.4-4 1.4-1.9-.1-3.3-.6-4.1-1.6zm14-16.4h4.5L23 20.8h-3.6l-.6-3.7h-2.6l-.6 3.7h-3.7l3.3-17.6zm3.2 11.6l-.9-6.9-.9 6.9h1.8zm7.4-8.7h-2.7V3.2h9.3v2.9h-2.7v14.7h-4V6.1h.1zm13.7-2.9h6.9V5H42v5.8h3.6v1.7H42v6.4h4.5v1.8h-7V3.2zm9 0h1.7l5.1 11.7V3.2h2.1v17.6h-1.6l-5.1-12v12h-2.1V3.2h-.1zm11.3 0h6.9V5h-4.4v5.8h3.6v1.7h-3.6v6.4h4.5v1.8h-7V3.2zm9 0h3.6c1.8 0 3.1.4 4 1.1s1.3 1.9 1.3 3.6c0 2.3-.7 3.6-2.2 4.1l2.5 8.8h-2.4l-2.3-8.3h-1.9v8.3h-2.5l-.1-17.6zm3.4 7.6c1.1 0 1.8-.2 2.3-.6.5-.4.7-1.2.7-2.3 0-.7-.1-1.3-.2-1.7s-.4-.7-.9-.9c-.4-.2-1-.3-1.7-.3h-1.1v5.8h.9zm8.6 8.7c-.7-1-1.1-2.5-1.1-4.5V9.2c0-1.4.1-2.5.4-3.4s.8-1.5 1.5-2 1.7-.7 2.9-.7c1.6 0 2.8.4 3.6 1.2.7.8 1.1 2.1 1.1 3.9v.7h-2.3v-.6c0-.8-.1-1.5-.2-1.9-.1-.5-.3-.8-.7-1-.3-.3-.8-.4-1.4-.4-.7 0-1.2.2-1.5.5s-.6.7-.7 1.2-.1 1.2-.1 2.1v6.5c0 1.3.2 2.3.5 2.9s1 .9 1.9.9 1.6-.3 1.9-1c.3-.6.5-1.7.5-3.1v-1.2h-2.3v-1.7h4.5v8.7h-1.6l-.2-2c-.6 1.5-1.6 2.2-3.2 2.2s-2.8-.5-3.5-1.5zm13.5-4.9L90.4 3.2h2.3l2.7 8.5 2.7-8.5h2.3l-3.8 11.4v6.2h-2.4v-6.2h.1z" transform="translate(90 10.2)" fill="#111"/>
  </g>


  <!-- logo tablet -->

  <g class="logo__tablet" xmlns="http://www.w3.org/2000/svg" viewBox="0 0 172.3 57.1" xml:space="preserve">
    <style>
      .st1{fill:#f06351}.st3{fill:#111}.st4{fill:#444}
    </style>
    <path d="M59.6 21.7C54.2 8.7 39.3 2.6 26.3 8S7.1 28.4 12.6 41.4c3.6 8.5 11.3 14.1 19.8 15.4-.6-2.1-1.2-4.4-1.7-6.8 1.5 1 3.1 1.8 4.7 2.5 0 0 .1 2.1.3 4.5 1.8 0 3.5-.1 5.3-.5v-.8c.3-1.9 1.1-5.2 1.2-7.4 1.1-1.1 2.1-2.3 2.9-3.7 0 .1 0 .3-.1.4-.6 4.2-1.7 8.8-2.4 10-.2.4-.5.9-.8 1.1 1.4-.3 2.7-.8 4.1-1.3 13-5.1 19.2-20.1 13.7-33.1zm-1.4 3.8c-.4.4-1.3.7-1.5-.6-.1-1.3-.2-2.2-.2-2.2s-1.9-3.4-2.6-3.5c-.7 0-5.8 3.5-7.1 4.9-1.2 1.3-1.4 1.2-1.4 3.5 0 1.7.2 8.1.1 13.1l-8.1 2.2c-5.9 1.6-7.8 1.8-7.8 1.8l-1-5.8L26 25.8s-3.8-1.4-5.2-1.8c-1.4-.4-2.3-.7-4 .6-1.8 1.3-1.7 3.8-1.7 3.8s.4 1 .5 1.4c0 .5-1.2.4-2 .4s-.9-1.4-.3-3.1c.6-1.7 1.9-3.7 1.9-3.7s1.2-2.3 2.1-2.9c0 0 .1-.3 1.2-.2 1.1.1 7.2.4 7.2.4l.1-2.3c6.7-.9 13.4-1.4 20.2-1.3 0 .6 0 1.2-.1 1.8 0 0 4.4-2 8.1-2 0 0 .4 0 .8.4.3.4 2.4 3 2.6 3.4.2.4 1.2 1.7 1.8 3-.2 0-.6 1.4-1 1.8z" fill="#fdc305"/>
    <path class="st1" d="M56.2 19.4c.5.6.9 1.1 1 1.3.2.4 1.2 1.7 1.8 3 0 0-.4 1.3-.9 1.8-.4.4-1.3.7-1.5-.6-.1-1.3-.2-2.2-.2-2.2s-1.9-3.4-2.6-3.5c-.7 0-5.8 3.5-7.1 4.9-1.2 1.3-1.4 1.2-1.4 3.5 0 1.5.2 6.6.1 11.2 1.8.2 4.4.7 5.2 1.9 0 0-.3-7.1 7.8-3.4 0 0 .3-9.7 11.4-7.2.1 0-5.6-7-13.6-10.7zM45.7 17.1C45.8 8.6 44.3.6 44.3.6s-.1-1.3-.9-.2c-.7 1.1-1.2 3.9-1.2 3.9-7.4-.4-12.8.3-12.8.3-.8-2.7-2.2-3.9-2.9-3.6-.7.3-.7 3.3-.7 3.3l-.3 14.1c6.7-.9 13.5-1.3 20.2-1.3z"/>
    <path d="M45.2 44.8c.1-1.1.2-2.5.2-4L37.3 43c-5.9 1.6-7.8 1.8-7.8 1.8l1.1 5c0 .1 0 .2.1.3 1.5 1 3.1 1.8 4.7 2.5 4.4-2.2 6.8-4.1 6.8-4.1v.1c1.2-1.2 2.2-2.5 3-3.8z" fill="#e55645"/>
    <path d="M31.9 14c0-.1 1 .7 1.4.9s.6.4.6.6-.3.3-.6.3-.9-.1-1-.3h1.2c0 .1-1.4-1-1.6-1.5zM39.3 14.1s-1 1.3-1.1 1.3-.2.3.2.3 1.1-.2 1.2-.3.1-.2-.1-.2-.7 0-1 .1l.8-1.2c.1 0 .1-.1 0 0zM36.2 20.2s.8-.4 1.1-1 0-.9-.4-1c-.5-.1-1.3 0-1.7.3-.4.4-.3.7-.1 1 .2.2.8.6 1.1.7z"/>
    <path class="st1" d="M35.8 21.4s-.2.4-.5.6c-.2.2-.6.4-1 .4-.6 0-1.1-.2-1.5-.4-.2-.1-.4-.3-.5-.4-.2-.2-.4-.3-.4-.3s.7 4.1 2.6 4.7c1.8.6 2.1-.7 2.2-1.1 0-.3 0-2.1-.8-3.2 0-.3 0-.1-.1-.3z"/>
    <path d="M34.2 22.6c-.1 0-.1 0 0 0-1.3 0-2.3-1.4-2.3-1.4V21h.2s1 1.3 2.1 1.3c.6 0 1.1-.3 1.6-1l.1-.2.1.2s.4.8 1 .8c.5 0 1.1-.4 1.6-1.3 0-.1.1-.1.2 0 .1 0 .1.1 0 .2-.6 1-1.3 1.4-1.9 1.4-.6 0-.9-.5-1.1-.8-.4.7-1 1-1.6 1z"/>
    <path class="st3" d="M41.1 29.2L38 30.5l1.1-5.6-7.5 9.7 3.1-1.3-1.1 5.6 7.5-9.7zM33.7 33l4.1-5.4-.8 4 2-.8-4.1 5.4.8-4-2 .8z"/>
    <path class="st1" d="M45.7 18.9s-2.5 2.2-5.1 5.2C38.1 27 35.3 29 35.3 29c-.2-.5-1.6-1.5-1.6-1.5s-3.1-2.1-5.2-3.8c-1.2-1-2.3-2.2-3.1-3-.3 0-1.1-.1-2-.1 4.7 7 12 8.8 12 8.8.9-.1 3.3-1.9 5.1-3.3s4.8-4.5 5.9-5.9c.6-.7.9-1.4 1.1-2-1.1.4-1.8.7-1.8.7zM25.8 25.7s-3.8-1.4-5.2-1.8c-1.4-.4-2.3-.7-4 .6-1.8 1.3-1.7 3.8-1.7 3.8s.4 1 .5 1.4c0 .5-1.2.4-2 .4s-.9-1.4-.3-3.1c.6-1.7 1.9-3.7 1.9-3.7-5.4 2.8-15 9.4-15 9.4s2.9-.3 8.2.2c5.2.5 4.9 4.7 4.9 4.7s3.5-1 5.6-1.1c2.1-.1 2.3 2.1 2.3 2.1l.5 3.8s.5-.6 2.6-2.4c1.9-1.5 3.9-1.4 4.4-1.3l-2.7-13z"/>
    <path class="st3" d="M89.6 37.1c-.7-.9-1-2.1-1-3.7v-5.3c0-1.6.3-2.9 1-3.7.7-.8 1.8-1.3 3.4-1.3 1.5 0 2.6.4 3.2 1.1.6.7.9 1.8.9 3.2v1.3h-2.9v-1.4c0-.4 0-.8-.1-1.1 0-.3-.2-.5-.3-.7-.2-.2-.5-.3-.8-.3-.6 0-.9.2-1.1.5-.2.4-.2.9-.2 1.6v6.8c0 .7.1 1.2.3 1.6.2.3.5.5 1 .5s.8-.2 1-.5c.1-.3.2-.9.2-1.6v-1.5h2.9v1.2c0 1.4-.3 2.5-.9 3.3-.6.8-1.7 1.2-3.2 1.2-1.7.1-2.8-.3-3.4-1.2zM101.1 23.3h3.4l2.9 14.9h-2.8l-.6-3.3h-2.4l-.6 3.3h-2.9l3-14.9zm2.6 9.7l-.9-6-.9 6h1.8zM109.5 25.5h-2.3v-2.2h7.6v2.2h-2.3v12.7h-3.1V25.5z"/>
    <path class="st4" d="M120.8 23.3h5.8v1.5h-3.7v4.9h3v1.5h-3v5.5h3.7v1.5h-5.8V23.3zM128.3 23.3h1.4l4.2 9.9v-9.9h1.7v14.9h-1.3L130.1 28v10.2h-1.8V23.3zM138 23.3h5.8v1.5h-3.7v4.9h3v1.5h-3v5.5h3.7v1.5H138V23.3zM145.5 23.3h3c1.5 0 2.6.3 3.3.9.7.6 1.1 1.6 1.1 3 0 1.9-.6 3.1-1.8 3.5l2.1 7.5h-2l-2-7h-1.6v7h-2.1V23.3zm2.9 6.4c.9 0 1.5-.2 1.9-.5.4-.4.6-1 .6-1.9 0-.6-.1-1.1-.2-1.4-.1-.3-.4-.6-.7-.8-.3-.2-.8-.2-1.5-.2h-.9v4.9h.8zM155.7 37.1c-.6-.9-.9-2.1-.9-3.8v-5c0-1.2.1-2.1.4-2.8.2-.7.7-1.3 1.2-1.7.6-.4 1.4-.6 2.4-.6 1.4 0 2.4.3 3 1 .6.7.9 1.8.9 3.3v.6h-2v-.5c0-.7 0-1.3-.1-1.6-.1-.4-.3-.7-.5-.9-.3-.2-.7-.3-1.2-.3-.6 0-1 .1-1.3.4-.3.3-.5.6-.5 1.1-.1.4-.1 1-.1 1.8v5.5c0 1.1.1 2 .4 2.5.3.5.8.7 1.6.7s1.3-.3 1.6-.8c.3-.5.4-1.4.4-2.6v-1h-2v-1.5h3.8v7.4h-1.3l-.2-1.7c-.5 1.3-1.4 1.9-2.7 1.9-1.3-.1-2.3-.5-2.9-1.4zM167.1 32.9l-3.2-9.6h1.9l2.3 7.2 2.2-7.2h2l-3.2 9.6v5.3h-2v-5.3z"/>
  </g>


  <!-- logo desktop -->

  <g class="logo__desktop" fill="none" xmlns="http://www.w3.org/2000/svg" viewBox="0 0 202 60">
    <g clip-path="url(#clip0)">
      <path d="M59.88 24a25.61 25.61 0 10-27.37 35.2c-.58-2.09-1.17-4.4-1.69-6.85 1.51.98 3.1 1.83 4.76 2.55 0 0 .12 2.16.28 4.57 1.79.03 3.57-.13 5.33-.47-.05-.25-.05-.5 0-.76.29-1.87 1.09-5.24 1.25-7.41a15.22 15.22 0 002.9-3.71l-.06.44c-.55 4.26-1.7 8.81-2.4 10.07-.23.42-.5.8-.83 1.15A25.64 25.64 0 0059.88 24zm-1.47 3.79c-.44.43-1.35.72-1.5-.58-.15-1.3-.19-2.21-.19-2.21s-1.93-3.43-2.65-3.47c-.72-.04-5.83 3.47-7.18 5-1.17 1.29-1.4 1.2-1.4 3.47 0 1.71.22 8.17.1 13.11l-8.15 2.17a64 64 0 01-7.8 1.72l-1-5.83h-.14L25.93 28s-3.81-1.44-5.21-1.83a3.76 3.76 0 00-4 .63 5.07 5.07 0 00-1.73 3.85c.21.46.37.95.48 1.45.05.48-1.2.43-2 .43s-.92-1.44-.29-3.13c.5-1.3 1.1-2.55 1.82-3.74a11.87 11.87 0 012.07-2.89s.14-.34 1.25-.24c1.11.1 7.28.43 7.28.43l.05-2.27c6.7-.93 13.47-1.37 20.24-1.34v1.83a22.52 22.52 0 018.14-2 .9.9 0 01.77.39c.34.43 2.41 3 2.65 3.37a28 28 0 011.83 3 6.24 6.24 0 01-.87 1.84v.01z" fill="#FDC305"/>
      <path d="M56.46 21.67l1 1.29a28 28 0 011.83 3 6.24 6.24 0 01-.86 1.78c-.44.43-1.35.72-1.5-.58-.15-1.3-.21-2.16-.21-2.16s-1.93-3.43-2.65-3.47c-.72-.04-5.83 3.47-7.18 5-1.17 1.29-1.4 1.2-1.4 3.47 0 1.5.17 6.65.13 11.23 1.81.2 4.47.7 5.27 1.88 0 0-.29-7.18 7.81-3.42 0 0 .28-9.79 11.46-7.28a43.72 43.72 0 00-13.7-10.74zM45.93 19.35a90.44 90.44 0 00-1.4-16.53s-.15-1.3-.87-.24c-.6 1.27-1 2.62-1.2 4a70.88 70.88 0 00-12.82.34c-.82-2.75-2.22-4-2.89-3.67-.67.33-.75 3.28-.75 3.28l-.33 14.16c6.71-.93 13.48-1.37 20.26-1.34z" fill="#F06351"/>
      <path d="M45.35 47.12c.13-1.07.2-2.49.24-4.06l-8.15 2.17a64 64 0 01-7.8 1.77l1.11 5c0 .11 0 .22.07.33 1.51.98 3.1 1.83 4.76 2.55a42.42 42.42 0 006.88-4.13v.06a15.22 15.22 0 002.89-3.69z" fill="#E55645"/>
      <path d="M32 16.22c-.05-.1 1 .68 1.41.92.41.24.61.42.61.59 0 .17-.26.34-.62.34s-.92-.12-1-.26c-.08-.14.6 0 .94 0h.29A8.08 8.08 0 0132 16.22zM39.5 16.33s-1 1.28-1.09 1.34c-.09.06-.17.34.19.29a8.1 8.1 0 001.22-.28c.11-.06.07-.2-.12-.18-.19.02-.68.05-1 .11l.85-1.27s.03-.12-.05-.01zM36.36 22.44c.46-.2.85-.56 1.09-1 .28-.66 0-.91-.44-1-.6-.11-1.23.01-1.75.34-.39.37-.34.73 0 1 .34.26.7.49 1.1.66z" fill="#000"/>
      <path d="M36 23.7c-.11.23-.27.43-.46.6-.28.23-.63.36-1 .38-.55.05-1.1-.1-1.54-.44a2 2 0 01-.53-.45 1 1 0 00-.36-.25s.75 4.11 2.57 4.77c1.82.66 2.16-.76 2.21-1.14a5.63 5.63 0 00-.82-3.24c0-.3-.02-.1-.07-.23z" fill="#F06351"/>
      <path d="M34.3 24.84a3.5 3.5 0 01-2.35-1.43.15.15 0 010-.2.14.14 0 01.2 0 3.22 3.22 0 002.11 1.31 2.11 2.11 0 001.64-1l.14-.19.1.22s.38.76 1 .8c.62.04 1.06-.42 1.63-1.29a.14.14 0 01.24.16c-.67.98-1.3 1.45-1.89 1.41A1.55 1.55 0 0136 23.9a2.26 2.26 0 01-1.7.94z" fill="#000"/>
      <path d="M36.26 38.3a3.75 3.75 0 100-7.5 3.75 3.75 0 000 7.5z" fill="#FDC305"/>
      <path d="M41.23 31.5l-3.13 1.31 1.15-5.63-7.5 9.76 3.13-1.31-1.15 5.64 7.5-9.77zm-7.39 3.83L38 29.92l-.81 4 2-.82L35 38.52l.81-4-1.97.81zM32.44 33.86a1.12 1.12 0 100-2.24 1.12 1.12 0 000 2.24zM38.96 37.92a.79.79 0 100-1.58.79.79 0 000 1.58zM39.92 35.75a.35.35 0 100-.7.35.35 0 000 .7z" fill="#111"/>
      <path d="M45.88 21.16a57.47 57.47 0 00-5.09 5.21 31.88 31.88 0 01-5.31 4.9c-.22-.53-1.63-1.52-1.63-1.52s-3.14-2.15-5.2-3.84a31.9 31.9 0 01-3.14-3l-2-.11a22.63 22.63 0 0012 8.84c.86-.14 3.28-1.87 5.09-3.28a57.66 57.66 0 006-5.91c.5-.6.88-1.27 1.14-2a20.4 20.4 0 00-1.86.71z" fill="#F06351"/>
      <path d="M65.22 3.5l-8.46 9.44-1.22-1.99L63.69 0l1.53 3.5zM62.65 17.26l5.54-4.11-.78-3.74-5.4 4.81.64 3.04zM59.92 49.37l6.13 3.18 3.01-2.34-6.69-2.75-2.45 1.91zM1.95 5.97l3.07-3.36 9.29 9-1.22 2.28L1.95 5.97zM7.38 16.28l-4.7-3.13-2.4 3.87 5.15 2.4 1.95-3.14zM13.91 52.55L9.36 55.9l2.8 3.58 4.02-4.02-2.27-2.91z" fill="#FDC305"/>
      <path d="M25.93 28s-3.81-1.44-5.21-1.83a3.76 3.76 0 00-4 .63 5.07 5.07 0 00-1.73 3.85c.21.46.37.95.48 1.45.05.48-1.2.43-2 .43s-.92-1.44-.29-3.13c.5-1.3 1.1-2.55 1.82-3.74-5.45 2.84-15 9.4-15 9.4 2.73-.16 5.47-.08 8.19.24 5.25.53 5 4.67 5 4.67 1.85-.5 3.73-.88 5.63-1.11 2.12-.14 2.27 2.12 2.27 2.12l.53 3.86c.8-.87 1.7-1.66 2.65-2.36a6.06 6.06 0 014.38-1.3L25.93 28z" fill="#F06351"/>
      <path d="M85.66 42a8.3 8.3 0 01-1.4-5.19v-7.5a8.42 8.42 0 011.38-5.24c.93-1.2 2.51-1.79 4.75-1.78 2.24 0 3.76.53 4.55 1.57a6.72 6.72 0 011.33 4.49v1.76h-4.14V28.2c0-.5-.05-1-.13-1.5-.05-.36-.22-.7-.47-.95a1.56 1.56 0 00-1.15-.37 1.46 1.46 0 00-1.5.75c-.26.7-.38 1.45-.34 2.2v9.52c-.05.75.09 1.5.39 2.2a1.48 1.48 0 001.45.73 1.35 1.35 0 001.4-.74c.24-.7.35-1.45.31-2.19v-2h4.14v1.73A7.25 7.25 0 0195 42.19c-.88 1.1-2.4 1.64-4.56 1.64-2.16 0-3.85-.6-4.78-1.83zM101.91 22.58h4.74l4 21h-3.94l-.71-4.64h-3.32l-.8 4.61h-4l4.03-20.97zm3.65 13.72l-1.26-8.44-1.25 8.44h2.51zM113.72 25.74h-3.24v-3.16h10.72v3.16H118v17.81h-4.29l.01-17.81z" fill="#111"/>
      <path d="M129.61 22.58h8.13v2.18h-5.2v6.93h4.22v2.07h-4.22v7.69h5.25v2.1h-8.18V22.58zM140.15 22.58h2l6 13.93V22.58h2.44v21h-1.87l-6-14.32v14.29h-2.48l-.09-20.97zM153.82 22.58h8.12v2.18h-5.2v6.93H161v2.07h-4.22v7.69H162v2.1h-8.18V22.58zM164.35 22.58h4.22a7 7 0 014.67 1.31c1 .87 1.49 2.29 1.49 4.26 0 2.67-.86 4.3-2.59 4.89l3 10.51h-2.84l-2.75-9.84h-2.27v9.84h-2.93V22.58zm4 9c.96.1 1.93-.18 2.7-.76a3.57 3.57 0 00.82-2.71 5.85 5.85 0 00-.29-2 1.89 1.89 0 00-1-1.08 4.76 4.76 0 00-2.05-.35h-1.29v6.94l1.11-.04zM178.67 42a9.25 9.25 0 01-1.27-5.35v-7c-.03-1.35.13-2.7.5-4 .29-.98.9-1.83 1.74-2.41a5.9 5.9 0 013.36-.84 5.26 5.26 0 014.18 1.48 7 7 0 011.28 4.63v.78h-2.75v-.65a11.5 11.5 0 00-.18-2.32 2 2 0 00-.76-1.23 3 3 0 00-1.72-.41c-.65-.06-1.3.14-1.81.56-.42.4-.69.91-.77 1.48-.13.82-.18 1.66-.17 2.49V37a7.52 7.52 0 00.59 3.46 2.83 2.83 0 004.47-.09c.48-1.15.7-2.4.61-3.65v-1.48h-2.66v-2.07h5.3v10.38h-1.81l-.29-2.41a3.69 3.69 0 01-3.73 2.67 4.66 4.66 0 01-4.11-1.81zM194.69 36.15l-4.53-13.57h2.72l3.21 10.12 3.16-10.12H202l-4.5 13.57v7.4h-2.8l-.01-7.4z" fill="#444"/>
    </g>
    <defs>
      <clipPath id="clip0">
        <path fill="#fff" d="M0 0h201.99v59.48H0z"/>
      </clipPath>
    </defs>
  </g>
</svg>
