<svg xmlns="http://www.w3.org/2000/svg" viewBox="0 0 172.3 57.04">
    <path d="M59.6 21.74a25.48 25.48 0 10-47 19.7 25.75 25.75 0 0019.8 15.4c-.6-2.1-1.2-4.4-1.7-6.8a30.35 30.35 0 004.7 2.5s.1 2.1.3 4.5a23.8 23.8 0 005.3-.5v-.8c.3-1.9 1.1-5.2 1.2-7.4a17.57 17.57 0 002.9-3.7.6.6 0 01-.1.4c-.6 4.2-1.7 8.8-2.4 10a3.13 3.13 0 01-.8 1.1 32.38 32.38 0 004.1-1.3 25 25 0 0013.7-33.1zm-1.4 3.8c-.4.4-1.3.7-1.5-.6s-.2-2.2-.2-2.2-1.9-3.4-2.6-3.5-5.8 3.5-7.1 4.9-1.4 1.2-1.4 3.5c0 1.7.2 8.1.1 13.1l-8.1 2.2a61.9 61.9 0 01-7.8 1.8l-1-5.8-2.6-13.1s-3.8-1.4-5.2-1.8-2.3-.7-4 .6a4.83 4.83 0 00-1.7 3.8s.4 1 .5 1.4-1.2.4-2 .4-.9-1.4-.3-3.1a21.34 21.34 0 011.9-3.7 10.9 10.9 0 012.1-2.9s.1-.3 1.2-.2 7.2.4 7.2.4l.1-2.3a136.17 136.17 0 0120.2-1.3 10.87 10.87 0 01-.1 1.8 23.64 23.64 0 018.1-2 1.24 1.24 0 01.8.4c.3.4 2.4 3 2.6 3.4a32.52 32.52 0 011.8 3c-.2 0-.6 1.4-1 1.8z" fill="#fdc305"/>
    <path d="M56.2 19.44a11.46 11.46 0 011 1.3 32.52 32.52 0 011.8 3 5.71 5.71 0 01-.9 1.8c-.4.4-1.3.7-1.5-.6s-.2-2.2-.2-2.2-1.9-3.4-2.6-3.5-5.8 3.5-7.1 4.9-1.4 1.2-1.4 3.5c0 1.5.2 6.6.1 11.2 1.8.2 4.4.7 5.2 1.9 0 0-.3-7.1 7.8-3.4 0 0 .3-9.7 11.4-7.2a41.36 41.36 0 00-13.6-10.7zM45.7 17.14A95.5 95.5 0 0044.3.64s-.1-1.3-.9-.2a15.28 15.28 0 00-1.2 3.9 77.62 77.62 0 00-12.8.3c-.8-2.7-2.2-3.9-2.9-3.6s-.7 3.3-.7 3.3l-.3 14.1a152.23 152.23 0 0120.2-1.3z" fill="#f06351"/>
    <path d="M45.2 44.84c.1-1.1.2-2.5.2-4l-8.1 2.2a61.9 61.9 0 01-7.8 1.8l1.1 5a.37.37 0 00.1.3 30.35 30.35 0 004.7 2.5 42.67 42.67 0 006.8-4.1v.1a20.84 20.84 0 003-3.8z" fill="#e55645"/>
    <path d="M31.9 14.04c0-.1 1 .7 1.4.9s.6.4.6.6-.3.3-.6.3-.9-.1-1-.3h1.2a5.2 5.2 0 01-1.6-1.5zM39.3 14.14a12.67 12.67 0 01-1.1 1.3c-.1 0-.2.3.2.3a3 3 0 001.2-.3c.1-.1.1-.2-.1-.2a3.75 3.75 0 00-1 .1l.8-1.2c.1 0 .1-.1 0 0zM36.2 20.24a2.79 2.79 0 001.1-1c.3-.6 0-.9-.4-1a2.49 2.49 0 00-1.7.3.68.68 0 00-.1 1 4.13 4.13 0 001.1.7z"/>
    <path d="M35.8 21.44a1.79 1.79 0 01-.5.6 1.53 1.53 0 01-1 .4 3.31 3.31 0 01-1.5-.4 2.18 2.18 0 01-.5-.4 1.73 1.73 0 00-.4-.3s.7 4.1 2.6 4.7 2.1-.7 2.2-1.1a6 6 0 00-.8-3.2c0-.3 0-.1-.1-.3z" fill="#f06351"/>
    <path d="M34.2 22.64a3.39 3.39 0 01-2.3-1.4v-.2h.2s1 1.3 2.1 1.3a1.94 1.94 0 001.6-1l.1-.2.1.2s.4.8 1 .8 1.1-.4 1.6-1.3c0-.1.1-.1.2 0s.1.1 0 .2a2.39 2.39 0 01-1.9 1.4 1.37 1.37 0 01-1.1-.8 1.82 1.82 0 01-1.6 1z"/>
    <path d="M41.1 29.24l-3.1 1.3 1.1-5.6-7.5 9.7 3.1-1.3-1.1 5.6zm-7.4 3.8l4.1-5.4-.8 4 2-.8-4.1 5.4.8-4z" fill="#111"/>
    <path d="M45.7 18.94a60.38 60.38 0 00-5.1 5.2 34 34 0 01-5.3 4.9c-.2-.5-1.6-1.5-1.6-1.5s-3.1-2.1-5.2-3.8c-1.2-1-2.3-2.2-3.1-3-.3 0-1.1-.1-2-.1a22.38 22.38 0 0012 8.8c.9-.1 3.3-1.9 5.1-3.3a46.88 46.88 0 005.9-5.9 5.75 5.75 0 001.1-2c-1.1.4-1.8.7-1.8.7zM25.8 25.74s-3.8-1.4-5.2-1.8-2.3-.7-4 .6a4.83 4.83 0 00-1.7 3.8s.4 1 .5 1.4-1.2.4-2 .4-.9-1.4-.3-3.1a21.34 21.34 0 011.9-3.7c-5.4 2.8-15 9.4-15 9.4a46.36 46.36 0 018.2.2c5.2.5 4.9 4.7 4.9 4.7a32.83 32.83 0 015.6-1.1 2.24 2.24 0 012.3 2.1l.5 3.8a27 27 0 012.6-2.4 5.89 5.89 0 014.4-1.3z" fill="#f06351"/>
    <path d="M89.6 37.14a5.82 5.82 0 01-1-3.7v-5.3a5.63 5.63 0 011-3.7 4.28 4.28 0 013.4-1.3 4.11 4.11 0 013.2 1.1 4.89 4.89 0 01.9 3.2v1.3h-2.9v-1.4a3.75 3.75 0 00-.1-1.1 1.49 1.49 0 00-.3-.7 1.14 1.14 0 00-.8-.3 1.17 1.17 0 00-1.1.5 3.66 3.66 0 00-.2 1.6v6.8a3.51 3.51 0 00.3 1.6 1.25 1.25 0 002 0 5.67 5.67 0 00.2-1.6v-1.5h2.9v1.2a5.39 5.39 0 01-.9 3.3 3.81 3.81 0 01-3.2 1.2c-1.7.1-2.8-.3-3.4-1.2zM101.1 23.34h3.4l2.9 14.9h-2.8l-.6-3.3h-2.4l-.6 3.3h-2.9zm2.6 9.7l-.9-6-.9 6zM109.5 25.54h-2.3v-2.2h7.6v2.2h-2.3v12.7h-3.1v-12.7z" fill="#111"/>
    <path d="M120.8 23.34h5.8v1.5h-3.7v4.9h3v1.5h-3v5.5h3.7v1.5h-5.8zM128.3 23.34h1.4l4.2 9.9v-9.9h1.7v14.9h-1.3l-4.2-10.2v10.2h-1.8zM138 23.34h5.8v1.5h-3.7v4.9h3v1.5h-3v5.5h3.7v1.5H138zM145.5 23.34h3a5 5 0 013.3.9 3.78 3.78 0 011.1 3c0 1.9-.6 3.1-1.8 3.5l2.1 7.5h-2l-2-7h-1.6v7h-2.1zm2.9 6.4a3.09 3.09 0 001.9-.5 2.55 2.55 0 00.6-1.9 4.64 4.64 0 00-.2-1.4 1.78 1.78 0 00-.7-.8 3 3 0 00-1.5-.2h-.9v4.9h.8zM155.7 37.14a6.67 6.67 0 01-.9-3.8v-5a7.22 7.22 0 01.4-2.8 3.53 3.53 0 011.2-1.7 4.27 4.27 0 012.4-.6 3.75 3.75 0 013 1 5 5 0 01.9 3.3v.6h-2v-.5a6.66 6.66 0 00-.1-1.6 1.93 1.93 0 00-.5-.9 2.13 2.13 0 00-1.2-.3 1.7 1.7 0 00-1.3.4 1.43 1.43 0 00-.5 1.1 8.66 8.66 0 00-.1 1.8v5.5a5.4 5.4 0 00.4 2.5 1.65 1.65 0 001.6.7 1.7 1.7 0 001.6-.8 5.61 5.61 0 00.4-2.6v-1h-2v-1.5h3.8v7.4h-1.3l-.2-1.7a2.67 2.67 0 01-2.7 1.9 3.55 3.55 0 01-2.9-1.4zM167.1 32.94l-3.2-9.6h1.9l2.3 7.2 2.2-7.2h2l-3.2 9.6v5.3h-2z" fill="#444"/>
  </svg>
