<svg style="display: none">


  <!-- logo footer -->

  <symbol id="logo-footer" xmlns="http://www.w3.org/2000/svg" viewBox="0 0 127.8 23.4" xml:space="preserve">
    <style>
      .st0{fill:#111}
    </style>
    <path class="st0" d="M1.6 21.5C.6 20.2 0 18.3 0 15.9V7.6c0-2.5.5-4.4 1.5-5.7C2.6.6 4.3 0 6.8 0c2.4 0 4.1.6 5.1 1.7s1.5 2.8 1.5 4.9v2H8.5V6.3c0-.9-.1-1.6-.3-2s-.6-.8-1.4-.8c-.7 0-1.2.2-1.4.7s-.3 1.3-.3 2.2v10.7c0 .9.1 1.6.4 2.1.2.5.7.7 1.4.7s1.1-.2 1.3-.7c.2-.5.3-1.2.3-2.1v-2.4h4.9v2c0 2.1-.5 3.8-1.5 5-1 1.2-2.7 1.8-5.1 1.8-2.4-.1-4.2-.7-5.2-2zM19.3.3H25l4.2 22.8h-4.6l-.8-4.8h-3.3l-.8 4.8H15L19.3.3zm4.1 15l-1.2-8.9-1.2 8.9h2.4zM32.7 4.1h-3.4V.3h11.9V4h-3.4v19.1h-5.1v-19zM50.3.3h8.8v2.4h-5.7v7.5H58v2.3h-4.6v8.4h5.7v2.3h-8.9V.3zM61.7.3h2.2l6.5 15.1V.3H73v22.8h-2L64.4 7.5v15.6h-2.7V.3zM76 .3h8.8v2.4h-5.7v7.5h4.6v2.3h-4.6v8.4h5.7v2.3H76V.3zM87.4.3H92c2.3 0 4 .5 5.1 1.4 1.1.9 1.6 2.5 1.6 4.6 0 2.9-.9 4.7-2.8 5.3L99.1 23H96l-3-10.7h-2.5V23h-3.2V.3zm4.4 9.8c1.4 0 2.3-.3 2.9-.8.6-.5.9-1.5.9-3 0-.9-.1-1.7-.3-2.2-.2-.5-.6-.9-1.1-1.2-.5-.3-1.3-.4-2.2-.4h-1.4V10h1.2zM102.7 21.4c-.9-1.3-1.4-3.2-1.4-5.8V8c0-1.8.2-3.2.5-4.3.4-1.1 1-2 1.9-2.6s2.1-.9 3.7-.9c2.1 0 3.6.5 4.5 1.6s1.4 2.7 1.4 5v.8h-3v-.7c0-1.1-.1-1.9-.2-2.5-.1-.6-.4-1-.8-1.3-.4-.3-1-.5-1.9-.5-.9 0-1.5.2-2 .6s-.7.9-.8 1.6-.2 1.6-.2 2.7V16c0 1.7.2 3 .6 3.8.4.8 1.2 1.1 2.4 1.1s2-.4 2.4-1.2c.4-.8.7-2.1.7-4v-1.6h-2.9v-2.3h5.8v11.3h-2l-.3-2.6c-.7 1.9-2.1 2.9-4.1 2.9-1.9 0-3.4-.7-4.3-2zM119.8 15.1L114.9.4h3l3.5 11 3.4-11h3l-4.9 14.7v8h-3v-8z"/>
  </symbol>


  <!-- hamburger -->

  <symbol id="hamburger" fill="none" xmlns="http://www.w3.org/2000/svg" viewBox="0 0 24 18">
    <path stroke="#000" stroke-width="1.5" d="M0 1.25h24M0 9.25h24M0 17.25h24"/>
  </symbol>


  <!-- close -->

  <symbol id="menu-close" xmlns="http://www.w3.org/2000/svg" viewBox="0 0 18 18">
    <path d="M18 1.3L16.7 0 9 7.7 1.3 0 0 1.3 7.7 9 0 16.7 1.3 18 9 10.3l7.7 7.7 1.3-1.3L10.3 9z"/>
  </symbol>


  <!-- cat-pro -->

  <symbol id="cat-pro" fill="none" xmlns="http://www.w3.org/2000/svg" viewBox="0 0 268 200">
    <circle cx="136" cy="100" r="100" fill="#68B738"/>
    <g clip-path="url(#clip0)">
      <path d="M246.2 55.6a30.4 30.4 0 019-9.2c2-1.4 3.2-1.4 4.4 1.2 1.6 3.8 3 7.8 1.8 12a4.58 4.58 0 00-.12 2.2 4.57 4.57 0 00.92 2c1.2 1.6 2.2 3.2 3.2 4.6a12.54 12.54 0 012.56 5.96 12.54 12.54 0 01-.76 6.44 10.86 10.86 0 00-.4 6.2c.4 1.98.4 4.02 0 6a7.5 7.5 0 01-1.72 4.02 7.5 7.5 0 01-3.68 2.38 10.42 10.42 0 00-6.4 4 2.1 2.1 0 01-1.8 1c-2.4.4-8.4-5-8.4-7.4v-1.2c.2-7.2-.2-7.8-6.8-10.8a8.78 8.78 0 01-3.6-2.4c-1.2-1.6-2.8-1.4-4.6-.8-1.8.6-2.8 1.8-2.6 3.8.6 4.84.8 9.73.6 14.6.01.56.15 1.1.4 1.6 6.2 9 8.6 19.6 11.6 29.8 2.4 7.8 6.8 12 14.8 12.6 1.28.1 2.55.3 3.8.6a8.32 8.32 0 014.38 2.16 8.32 8.32 0 012.42 4.24c1.4 4.2.6 5.2-3.6 5.2h-13a6.48 6.48 0 01-4.6-1.6 23.41 23.41 0 00-6.8-4 14.53 14.53 0 01-6.8-5.2 57.21 57.21 0 00-8-9c-5.6-5.8-11.6-11.4-16.8-17.4a22.76 22.76 0 01-6.4-15.2c0-1.8-.4-2.6-2.4-1.8-.6.38-1.3.59-2 .6-5.6 0-8.4 3.4-10.4 8.4-1.8 4.2-4.2 8.2-6.4 12.4a20.79 20.79 0 00-2 8.4c0 4.8 1.2 6.4 5.6 8 2.8 1 5.4 2 6.8 4.8 1.6 3.2 1.2 4-2.2 4.2h-13.6a3.75 3.75 0 01-2.25-.49 3.76 3.76 0 01-1.55-1.71l-3.6-6a12.1 12.1 0 01-1.98-5.23 12.1 12.1 0 01.58-5.57c.87-3.47.93-7.1.2-10.6-.5-2.44-.46-4.96.13-7.38a16.84 16.84 0 013.27-6.62c1.2-1.4 1.2-2-.8-2.4a100.1 100.1 0 01-23.6-8.2.2.2 0 01-.14-.06.2.2 0 01-.06-.14c-6.4-2.4-7.6-2-9.4 4.6-1.6 5.6-3.2 11.2-4.4 17-1.4 6.4.2 12.4 2.2 18.4.8 2.4 3.2 2.2 5 2.8 4 1.2 7.4 2.8 9 7 1.4 3.2 1.2 3.6-2.2 3.6-3.4 0-6.8-.2-10.4 0-3.04.06-6-.93-8.4-2.8-9.6-6.4-12.4-16.2-13.2-26.8-.4-6.6-4-11.8-8.2-16.8-.8-1-1.6-1.4-2.8-.6a88.65 88.65 0 01-13.4 6 53.42 53.42 0 00-24.4 17.6 21.26 21.26 0 00-4.4 10.2c-.6 3.6.4 5.2 4 6.2s5.4 3 5.8 6.8c.2 1.6-.4 2.4-2 2.4H49.4a3.31 3.31 0 01-1.5-.48 3.3 3.3 0 01-1.1-1.12 17.12 17.12 0 01-3.8-11c-.1-6.91.5-13.81 1.8-20.6a12.6 12.6 0 012.21-5.64 12.6 12.6 0 014.59-3.96c11.8-5.6 18-16.2 23.6-27.2 1.2-2.2.2-2.6-1.8-2.4A32.94 32.94 0 0058 84.2a141.25 141.25 0 00-16.6 14.2 33.34 33.34 0 01-20.6 9.8C6.2 109-.6 100.8 0 87.6a19.38 19.38 0 014.8-12.2 8.5 8.5 0 019-3c3 .8 3.8 2.4 2.6 5.4-.6 1.2-1.4 2.2-2 3.4a15 15 0 00-2 4c-2.2 6 .8 10.2 7 10.8 6.6.6 12-2.2 17-6.2a89.88 89.88 0 0016-16.6A41.58 41.58 0 0181.2 57c4.6-.6 8.6-2.6 13-3.8a83.02 83.02 0 0125.4-3.6 26 26 0 0011.6-2.2c9.8-4 20-4 30.2-2 8 1.6 16 3.6 23.8 5.6 4.64.86 9.41.73 14-.4a135.58 135.58 0 0126.8-4 36.32 36.32 0 0117.2 3.4c4 1.8 4 1.8 3 5.6z" fill="#000"/>
    </g>
    <defs>
      <clipPath id="clip0">
        <path fill="#fff" transform="translate(0 44)" d="M0 0h268v112H0z"/>
      </clipPath>
    </defs>
  </symbol>


  <!-- cat-slim -->

  <symbol id="cat-slim" fill="none" xmlns="http://www.w3.org/2000/svg" viewBox="0 0 200 211">
    <circle cx="100" cy="111" r="100" fill="#68B738"/>
    <g clip-path="url(#clip0)">
      <path d="M139.68 0h-.76A6.96 6.96 0 00136 3.15a30.52 30.52 0 00-2.58 6.75c-.13.7-.49 1.34-1.02 1.82a3.27 3.27 0 01-1.94.83A14.76 14.76 0 00120 20.03a53.8 53.8 0 00-3.7 7.92c-2.84 7.28-5.02 14.8-7.7 22.15-1.26 3.34-1.32 3.34-5.12 3.34-4.54 0-4.22-.69-4.28 4.26 0 1.56.48 2.35 2.16 2.28.52 0 1.3-.26 1.5.41.2.67-.48.97-.88 1.37a18.05 18.05 0 01-8.66 4.83c-3.8 1-7.68 1.8-11.38 3.02-9.5 3.15-18.28 7.55-25.12 14.99-4 4.62-7.2 9.86-9.48 15.52-7.34 17.1-10.9 35.11-13.66 53.3a368.2 368.2 0 00-2.92 25.73C30.4 183.4 30 187.68 30 192h66.66a4.28 4.28 0 00-.46-2.53 9.9 9.9 0 00-3.02-4.04 10.04 10.04 0 00-4.64-2.04c-1.4-.32-1.56-.73-.7-1.82a20.42 20.42 0 003.18-6.14c3.26-9.52 4.52-19.46 6.1-29.3A58.96 58.96 0 01104 124.7a42.9 42.9 0 0111.18-12.6c1.66-1.26 1.72-1.26 2 .86.2 1.4.24 2.85.34 4.28.6 9.35.48 18.73-.36 28.07a120.8 120.8 0 00-.3 21.77c.8 8.42 2.31 16.76 4.54 24.92H148a10.67 10.67 0 00-2.86-5.7 10.85 10.85 0 00-5.62-3.09c-2.5-.4-5.07-.26-7.52.4-1.2.28-1.7 0-1.8-1.29a110.44 110.44 0 012-31.31 348.46 348.46 0 006.12-35.99c.52-4.88 2.08-9.6 4.56-13.85 2.38-4.2 4.46-8.55 6.8-12.77a11.54 11.54 0 001.63-5.04 11.5 11.5 0 00-.79-5.23c-.54-1.4-1.06-2.83-1.72-4.18-2-3.86-4-7.68-5.84-11.58-.98-1.98-.76-2.22 1.42-2.28 3.26 0 3.26 0 3.32-3.24v-1.3c0-1.37-.52-2.13-2-1.99h-3.04c-1.38 0-1.78-.57-1.44-1.98.67-2.28 2-4.32 3.82-5.88a12.54 12.54 0 016.44-2.89 44.45 44.45 0 0113.24.86 2.02 2.02 0 002.5-1.27c.8-1.98 1.68-3.96 2.58-5.94.2-.35.3-.76.26-1.16a1.96 1.96 0 00-.46-1.1c-6.4-8.03-13.34-15.53-22.8-20.34a2.97 2.97 0 01-1.17-.9 2.94 2.94 0 01-.59-1.32 38.46 38.46 0 00-2.54-8.24 6.94 6.94 0 00-2.82-3.4z" fill="#000"/>
    </g>
    <defs>
      <clipPath id="clip0">
        <path fill="#fff" transform="translate(30)" d="M0 0h140v192H0z"/>
      </clipPath>
    </defs>
  </symbol>


  <!-- arrow right -->

  <symbol id="right-arrow" xmlns="http://www.w3.org/2000/svg" viewBox="0 0 24.2 11">
    <path fill="#3f4242" d="M17.6 0l6.6 5.5-6.6 5.5V6.6H0V4.4h17.6z"/>
  </symbol>


  <!-- arrow right long -->

  <symbol id="right-arrow-long" xmlns="http://www.w3.org/2000/svg" viewBox="0 0 32 11">
    <path fill="#3f4242" d="M25.4 0L32 5.5 25.4 11V6.6H0V4.4h25.4z"/>
  </symbol>


  <!-- leaf -->

  <symbol id="leaf" fill="none" xmlns="http://www.w3.org/2000/svg" viewBox="0 0 30 32">
    <g clip-path="url(#clip0)">
      <path d="M27.84 2.77a.95.95 0 00-.9-.77h-.01c-4.94.03-16.95.92-21.8 8.38-2.51 3.88-2.73 8.91-.64 14.96l.07.13a25.93 25.93 0 00-1.04 3.32c-.11.54.21 1.07.72 1.19a.88.88 0 00.2.02c.43 0 .81-.32.9-.79.03-.1 2.42-10.37 10.86-16.38.43-.3.55-.93.26-1.39a.9.9 0 00-1.3-.27c-4.79 3.4-7.74 8-9.47 11.65-1.24-4.57-.92-8.37.99-11.3 3.74-5.77 12.62-7.16 17.98-7.45-1.16 1.8-2.41 5.1-2.41 10.93 0 3.12-.83 5.52-2.47 7.14-2.62 2.6-6.88 2.83-10 2.58-.51-.04-.96.38-1 .93-.04.55.35 1.03.86 1.07.63.05 1.3.08 1.98.08 3.18 0 6.87-.66 9.43-3.2 2.04-2 3.07-4.9 3.07-8.6 0-9.1 3.22-11.1 3.23-11.1.4-.21.6-.68.5-1.13z" fill="#fff"/>
    </g>
    <defs>
      <clipPath id="clip0">
        <path fill="#fff" d="M0 0h30v32H0z"/>
      </clipPath>
    </defs>
  </symbol>


  <!-- powder -->

  <symbol id="powder" fill="none" xmlns="http://www.w3.org/2000/svg" viewBox="0 0 29 31">
    <path d="M20.78 18.47c-1.71 0-3.1 1.48-3.1 3.3 0 1.83 1.4 3.3 3.1 3.3 1.7 0 3.08-1.47 3.08-3.3 0-1.82-1.38-3.3-3.08-3.3zm0 5.02c-.89 0-1.6-.77-1.6-1.71 0-.95.71-1.72 1.6-1.72.88 0 1.6.77 1.6 1.72 0 .94-.72 1.7-1.6 1.7zM11.6-.01c-1.76 0-3.19 1.52-3.19 3.4 0 1.89 1.43 3.41 3.19 3.41s3.18-1.52 3.18-3.4c0-1.89-1.42-3.41-3.18-3.41zm0 5.48c-1.07 0-1.94-.93-1.94-2.07 0-1.15.87-2.07 1.94-2.07 1.07 0 1.93.92 1.93 2.07 0 1.14-.86 2.07-1.93 2.07zM8.23 17.6c-1.3 0-2.34 1.12-2.34 2.5 0 1.39 1.04 2.5 2.34 2.5 1.3 0 2.34-1.11 2.34-2.5s-1.05-2.5-2.34-2.5zM8 19.5c-.46 0 1.16 1.1 1.16.61 0-.49-1.62.39-1.16.39.46 0 1.06-.88 1.06-.39 0 .5-.6-.61-1.06-.61zm10.5-9.74s3.04-.84 6.18 1.5c.9.76 1.76 1.33 1.15 2.12-.34.34-.64.66-1.72-.53a6.92 6.92 0 00-5.61-1.44c-1.13.24-1.96.55-3.56 2.15a8.27 8.27 0 01-6.5 2.5c-2.52-.24-3.84-1.27-5.24-2.55-.3-.42-.3-.87-.12-1.13.17-.26.83-.52 1.2-.13.37.4 2.1 1.97 3.82 2.07 1.72.1 3.44.21 5.74-1.96 2.3-2.18 3.46-2.34 4.66-2.6z" fill="#fff"/>
    <mask id="a" fill="#fff">
      <path d="M28.65 26.82V8.16c0-.58-.38-.65-.53-.66h-.5c-.5 0-.54.56-.54.74V26.84a2.68 2.68 0 01-.82 1.89c-.81.7-1.62.6-1.62.6s-20.18 0-20.66-.03a2.3 2.3 0 01-1.6-1c-.57-.8-.46-1.85-.46-1.85V8.3c0-.83-.67-.8-.67-.8h-.3c-.54 0-.6.58-.6.77v18.54c0 1.33.46 2.4 1.55 3.33 1.1.94 2.38.86 2.38.86h20.58c.86 0 1.98-.42 2.91-1.56.93-1.14.88-2.63.88-2.63z"/>
    </mask>
    <path d="M28.65 26.82V8.16c0-.58-.38-.65-.53-.66h-.5c-.5 0-.54.56-.54.74V26.84a2.68 2.68 0 01-.82 1.89c-.81.7-1.62.6-1.62.6s-20.18 0-20.66-.03a2.3 2.3 0 01-1.6-1c-.57-.8-.46-1.85-.46-1.85V8.3c0-.83-.67-.8-.67-.8h-.3c-.54 0-.6.58-.6.77v18.54c0 1.33.46 2.4 1.55 3.33 1.1.94 2.38.86 2.38.86h20.58c.86 0 1.98-.42 2.91-1.56.93-1.14.88-2.63.88-2.63z" fill="#fff"/>
    <path d="M28.65 26.82h-20v.38l.01.39 19.99-.77zM28.12 7.5l.71-19.99h-.71v20zm-1.04.74l-20-.15V8.24h20zm0 .06h-20 20zm0 18.54l-19.99-.76v.02l19.99.74zm-.82 1.89l13.03 15.16.44-.37.4-.4-13.87-14.4zm-1.62.6L26.9 9.46l-1.13-.13h-1.13v20zM3.98 29.3L.58 49.01l1.14.2 1.15.06L3.98 29.3zm-1.6-1l-16.35 11.52L2.39 28.3zm-.46-1.85l19.9 2.1.1-1.05v-1.05h-20zM1.25 7.5v20h.39l.38-.01L1.25 7.5zm-.9.78l-20-.29V8.28h20zM1.9 30.15l-13.02 15.18L1.9 30.15zm2.38.86V11h-.65l-.64.04 1.29 19.96zm23.5-1.56L43.25 42.1 27.78 29.45zm20.87-2.63V8.16h-40v18.66h40zm0-18.66a20.54 20.54 0 00-19.81-20.64L27.4 27.48A19.46 19.46 0 018.65 8.16h40zM28.12-12.5h-.5v40h.5v-40zm-.5 0A20.47 20.47 0 008.92-.38c-1.8 4-1.83 7.56-1.84 8.47l40 .3c0 .73-.02 3.91-1.67 7.6a19.47 19.47 0 01-6.1 7.6 19.53 19.53 0 01-11.7 3.91v-40zM7.08 8.24v.05h40v-.04h-40zm0 .05v.01h40-40zm0 .02v10.51a8664.75 8664.75 0 010 7.25c0 .79 0 .45.01.01l39.97 1.52c.02-.51.02-1.37.02-1.45a1362.33 1362.33 0 000-7.34V8.3l-40 .02zm.01 17.79c.05-1.35.38-7.05 5.28-11.77l27.77 28.8a22.68 22.68 0 006.92-15.54L7.1 26.09zm6.13-12.54a17.51 17.51 0 017.8-3.84 17.96 17.96 0 013.25-.38 18.61 18.61 0 011.38.02 19.23 19.23 0 011.17.1h.06s.02 0-2.24 19.87a2063.4 2063.4 0 00-2.24 19.88h.05l.08.01a20.68 20.68 0 001.17.09 21.38 21.38 0 001.58.02 22.04 22.04 0 003.98-.47A22.49 22.49 0 0039.3 43.9L13.22 13.56zm11.42 15.77v-20h-.87a17598.02 17598.02 0 01-9.27 0 6059.43 6059.43 0 01-7.05-.01H5.09c-1.07-.01-.61-.02 0 .02L2.88 49.27c.97.06 7.17.06 11.6.06h10.17v-20zM7.38 9.6c.43.08 2.52.43 4.93 1.66 2.57 1.3 4.78 3.2 6.4 5.51l-32.67 23.07C-8.96 46.9-2.1 48.55.59 49L7.38 9.6zm11.34 7.18a17.34 17.34 0 013.2 10.14 17.4 17.4 0 01-.04.85 18.34 18.34 0 01-.06.7v.06a.58.58 0 000 .01c0 .01 0 .02-19.9-2.08l-19.89-2.09v.09a20.55 20.55 0 00-.04.3 21.68 21.68 0 00-.03.48c-.02.32-.04.7-.04 1.11a23.43 23.43 0 00.16 3.08 22.66 22.66 0 003.95 10.4l32.69-23.05zm3.2 9.68V8.3h-40v18.14h40zm0-18.14A20.74 20.74 0 004.68-12.2a20.65 20.65 0 00-3.37-.29 20.3 20.3 0 00-.79.02H.5c-.01 0-.03 0 .75 19.98C2.02 27.5 2 27.5 2 27.5h-.07a21.13 21.13 0 01-.3 0 19.67 19.67 0 01-1.35-.01 19.31 19.31 0 01-8.77-2.6 19.39 19.39 0 01-7.23-7.44 19.03 19.03 0 01-2.36-9.13h40zM1.25-12.49h-.3v40h.3v-40zm-.3 0A20.52 20.52 0 00-17.68-.66 21.17 21.17 0 00-19.64 8l40 .58c-.02.76-.05 4-1.8 7.72a19.44 19.44 0 01-6.2 7.5A19.48 19.48 0 01.95 27.5v-40zm-20.6 20.77v18.54h40V8.28h-40zm0 18.54c0 7.06 2.92 13.7 8.53 18.51l26.05-30.35a15.62 15.62 0 014 5.37 15.72 15.72 0 011.42 6.47h-40zm8.53 18.51A23.59 23.59 0 00-.64 50.5a23.62 23.62 0 003.69.48c.51.03.98.03 1.4.03a21.34 21.34 0 00.99-.03h.06l.03-.01h.01c.01 0 .02 0-1.26-19.96A2530.9 2530.9 0 013 11.05a1.15 1.15 0 01.01 0h.1a19.74 19.74 0 01.37-.02 18.5 18.5 0 011.58 0 16.39 16.39 0 012.57.34 16.41 16.41 0 017.29 3.6l-26.05 30.36zm15.4-14.32v20H24.9l-.1-40H4.27v20zM24.9 51c7.1-.02 13.8-3.34 18.35-8.9L12.3 16.8A16.17 16.17 0 0124.8 11l.11 40zm18.36-8.91a23.97 23.97 0 004.91-10.53 24.74 24.74 0 00.43-3.36 23.58 23.58 0 00.04-1.22 22.37 22.37 0 00-.01-.74 15.94 15.94 0 000-.16v-.02a.64.64 0 000-.02l-20 .77-19.98.76v-.04a23.42 23.42 0 010-.15 18.9 18.9 0 01-.01-.61 16.42 16.42 0 01.02-.86 16.04 16.04 0 013.6-9.11l31 25.29z" fill="#fff" mask="url(#a)"/>
</symbol>

  <!-- eat -->

  <symbol id="eat" fill="none" xmlns="http://www.w3.org/2000/svg" viewBox="0 0 23 30">
    <mask id="a" fill="#fff">
      <path d="M18.19 30c-.45 0-.82-.28-.82-.63V.63c0-.34.37-.62.82-.62s.81.28.81.63v28.75c0 .34-.36.62-.81.62z"/>
    </mask>
    <path d="M18.19 28c.17 0 .41.05.64.23.24.18.55.57.55 1.14h-4c0 1.91 1.77 2.63 2.8 2.63v-4zm1.18 1.38V.63h-4v28.75h4zm0-28.75c0 .57-.3.96-.54 1.14-.23.18-.47.23-.64.23v-4c-1.04 0-2.82.72-2.82 2.63h4zM18.2 2c-.18 0-.41-.05-.65-.23A1.44 1.44 0 0117 .62h4C21-1.27 19.22-2 18.19-2v4zM17 .62v28.75h4V.63h-4zm0 28.75c0-.57.3-.96.54-1.14.24-.18.47-.23.65-.23v4c1.03 0 2.81-.72 2.81-2.63h-4z" fill="#fff" mask="url(#a)"/>
    <path d="M19.22 2.15c.35.6.67 1.4.98 2.36a7.73 7.73 0 00-.4-.67c-.22-.33-.45-.6-.7-.82a2.4 2.4 0 00-.44-.33c-.04-.16-.09-.4-.13-.66a15.87 15.87 0 01-.12-.9c.2.15.48.45.81 1.02z" stroke="#fff" stroke-width="2"/>
    <mask id="b" fill="#fff">
      <path d="M6 11.25c-2.76 0-5-1.96-5-4.38V.63c0-.34.32-.62.71-.62.4 0 .89.28.89.63v6.25C2.6 8.6 4.03 9.5 6 9.5s3.5-1 3.5-2.5V.62c0-.34.4-.62.79-.62.4 0 .71.28.71.63v6.25c0 2.4-2.24 4.37-5 4.37z"/>
    </mask>
    <path d="M6 9.25c-1.91 0-3-1.31-3-2.38h-4c0 3.76 3.4 6.38 7 6.38v-4zM3 6.87V.63h-4v6.25h4zM3 .63C3 1.63 2.16 2 1.71 2v-4C.47-2-1-1.07-1 .63h4zM1.71 2a.89.89 0 01-.5-.15C1.12 1.8.6 1.43.6.62h4c0-1.14-.78-1.83-1.2-2.1A3.12 3.12 0 001.72-2v4zM.6.62v6.25h4V.63h-4zm0 6.25c0 1.5.65 2.76 1.78 3.58A6.11 6.11 0 006 11.5v-4c-.71 0-1.1-.17-1.26-.28a.3.3 0 01-.1-.11.51.51 0 01-.04-.24h-4zM6 11.5c1.3 0 2.6-.33 3.63-1.05A4.18 4.18 0 0011.5 7h-4v.03a.5.5 0 01-.15.14c-.23.16-.68.33-1.35.33v4zM11.5 7V.62h-4V7h4zm0-6.38c0 .63-.35 1-.54 1.15-.2.15-.42.23-.67.23v-4a2.9 2.9 0 00-1.76.6A2.57 2.57 0 007.5.62h4zM10.29 2C9.84 2 9 1.63 9 .62h4C13-1.06 11.53-2 10.29-2v4zM9 .62v6.25h4V.63H9zm0 6.25c0 1.07-1.09 2.38-3 2.38v4c3.6 0 7-2.62 7-6.38H9z" fill="#fff" mask="url(#b)"/>
    <mask id="c" fill="#fff">
      <path d="M6 30c-.55 0-1-.28-1-.63V.63C5 .28 5.45 0 6 0s1 .28 1 .63v28.75c0 .34-.45.62-1 .62z"/>
    </mask>
    <path d="M6 24c.67 0 1.56.16 2.47.73.84.52 2.53 2 2.53 4.64H-1a6.53 6.53 0 003.11 5.54C3.4 35.7 4.78 36 6 36V24zm5 5.38V.63H-1v28.75h12zM11 .63c0 2.63-1.7 4.12-2.53 4.64C7.56 5.84 6.67 6 6 6V-6c-1.22 0-2.6.3-3.89 1.1A6.53 6.53 0 00-1 .62h12zM6 6c-.67 0-1.56-.16-2.47-.73C2.69 4.75 1 3.27 1 .63h12a6.53 6.53 0 00-3.11-5.54A7.35 7.35 0 006-6V6zM1 .62v28.75h12V.63H1zm0 28.75c0-2.63 1.7-4.12 2.53-4.64.91-.57 1.8-.73 2.47-.73v12c1.22 0 2.6-.3 3.89-1.1A6.53 6.53 0 0013 29.39H1z" fill="#fff" mask="url(#c)"/>
  </symbol>


  <!-- clock -->

  <symbol id="clock" fill="none" xmlns="http://www.w3.org/2000/svg" viewBox="0 0 32 33">
    <circle cx="21.2" cy="11.33" fill="#fff" r="1.09"/>
    <circle cx="10.33" cy="11.33" fill="#fff" r="1.09"/>
    <circle cx="10.33" cy="24.35" fill="#fff" r="1.09"/>
    <circle cx="15.77" cy="26.52" fill="#fff" r="1.09"/>
    <circle cx="7.07" cy="17.77" fill="#fff" r="1.09"/>
    <circle cx="24.47" cy="17.77" fill="#fff" r="1.09"/>
    <circle cx="21.2" cy="24.35" fill="#fff" r="1.09"/>
    <mask id="a" fill="#fff">
      <path fill-rule="evenodd" clip-rule="evenodd" d="M20.92 29.06c.41-.2.9-.13 1.22.2l1.82 1.87a.68.68 0 00.98-.95l-1.36-1.4c-.42-.43-.36-1.14.1-1.55A12.75 12.75 0 0028 17.61C28 10.65 22.52 5 15.77 5 9 5 3.54 10.65 3.54 17.61c0 3.82 1.64 7.24 4.23 9.55.45.4.51 1.11.1 1.55l-1.44 1.47a.68.68 0 00.97.95l1.88-1.93c.32-.33.82-.4 1.23-.2a11.88 11.88 0 0010.41.06zm-5.15-.23c6 0 10.87-5.02 10.87-11.22 0-6.19-4.87-11.2-10.87-11.2-6 0-10.88 5.01-10.88 11.2 0 6.2 4.87 11.22 10.88 11.22zM15 17.3V9.94a.78.78 0 111.56 0v8.18a.8.8 0 01-.8.8.76.76 0 01-.76-.75v-.87z"/>
    </mask>
    <path fill-rule="evenodd" clip-rule="evenodd" d="M20.92 29.06c.41-.2.9-.13 1.22.2l1.82 1.87a.68.68 0 00.98-.95l-1.36-1.4c-.42-.43-.36-1.14.1-1.55A12.75 12.75 0 0028 17.61C28 10.65 22.52 5 15.77 5 9 5 3.54 10.65 3.54 17.61c0 3.82 1.64 7.24 4.23 9.55.45.4.51 1.11.1 1.55l-1.44 1.47a.68.68 0 00.97.95l1.88-1.93c.32-.33.82-.4 1.23-.2a11.88 11.88 0 0010.41.06zm-5.15-.23c6 0 10.87-5.02 10.87-11.22 0-6.19-4.87-11.2-10.87-11.2-6 0-10.88 5.01-10.88 11.2 0 6.2 4.87 11.22 10.88 11.22zM15 17.3V9.94a.78.78 0 111.56 0v8.18a.8.8 0 01-.8.8.76.76 0 01-.76-.75v-.87z" fill="#fff"/>
    <path d="M9.28 29.2l2.87 2.79-2.87-2.8zm1.23-.2l1.76-3.58L10.51 29zm-3.1 2.13l-2.87-2.8 2.86 2.8zm-.98-.95l-2.87-2.8 2.87 2.8zm17.15-1.4l-2.86 2.8 2.86-2.8zm.1-1.55l-2.63-3 2.63 3zm-15.9-.07L5.1 30.15l2.66-2.99zm.08 1.55L5 25.9l2.86 2.8zm17.08 1.47l2.87-2.8-2.87 2.8zm-.98.95l-2.86 2.79 2.86-2.8zm-1.82-1.88L25 26.46l-2.86 2.8zm-1.22-.2l-1.73-3.6 1.73 3.6zm-1.65 3l1.83 1.87 5.73-5.58L25 26.46l-5.73 5.58zm8.54-4.66l-1.36-1.4-5.73 5.59 1.36 1.39 5.73-5.58zm-1.5 2.85A16.75 16.75 0 0032 17.61h-8a8.75 8.75 0 01-2.95 6.61l5.27 6.02zM32 17.61C32 8.56 24.85 1 15.77 1v8C20.2 9 24 12.74 24 17.61h8zM15.77 1C6.69 1-.46 8.56-.46 17.61h8c0-4.87 3.8-8.61 8.23-8.61V1zM-.46 17.61c0 4.98 2.14 9.48 5.57 12.54l5.32-5.97a8.75 8.75 0 01-2.9-6.57h-8zM5 25.91L3.56 27.4l5.73 5.58 1.44-1.47L5 25.9zm5.27 8.01l1.88-1.93-5.73-5.58-1.88 1.93 5.73 5.58zM8.75 32.6a15.88 15.88 0 007.02 1.63v-8a7.88 7.88 0 01-3.5-.81L8.75 32.6zm7.02 1.63c2.45 0 4.79-.56 6.88-1.57l-3.46-7.2c-1.04.5-2.2.77-3.42.77v8zm0-1.4c8.33 0 14.87-6.93 14.87-15.22h-8c0 4.1-3.2 7.22-6.87 7.22v8zM30.64 17.6c0-8.28-6.54-15.2-14.87-15.2v8c3.68 0 6.87 3.1 6.87 7.2h8zM15.77 2.41C7.44 2.4.89 9.32.89 17.6h8c0-4.1 3.2-7.2 6.88-7.2v-8zM.89 17.6c0 8.29 6.55 15.22 14.88 15.22v-8c-3.68 0-6.88-3.12-6.88-7.22h-8zm11.68-.31v.54h8v-.54h-8zm0 .54v.28h8v-.28h-8zm6.44.33v-.33h-8v.33h8zm0-.33v-.54h-8v.54h8zm0-.54v-3.8h-8v3.8h8zm0-3.8V9.94h-8v3.56h8zm-6.44-3.56v3.56h8V9.94h-8zm0 3.56v3.8h8v-3.8h-8zm3.22-8.34A4.78 4.78 0 0011 9.94h8a3.22 3.22 0 01-3.22 3.22v-8zm-3.22 12.96a3.2 3.2 0 013.2-3.2v8a4.8 4.8 0 004.8-4.8h-8zM12.15 32c-1 1.02-2.4 1.1-3.4.6l3.52-7.17a5.06 5.06 0 00-5.85.99l5.73 5.58zm-8.59 1.93a4.68 4.68 0 006.71 0l-5.73-5.58a3.32 3.32 0 014.75 0l-5.73 5.58zm0-6.53a4.68 4.68 0 000 6.53l5.73-5.58a3.32 3.32 0 010 4.63l-5.73-5.58zm22.89-1.4a2.93 2.93 0 01-.13 4.25l-5.27-6.02a5.08 5.08 0 00-.33 7.36l5.73-5.59zM15.79 13.16a3.22 3.22 0 01-3.22-3.22h8a4.78 4.78 0 00-4.78-4.78v8zM5.11 30.15A2.93 2.93 0 015 25.9l5.73 5.59a5.07 5.07 0 00-.3-7.32l-5.32 5.97zm22.7 3.77a4.68 4.68 0 000-6.53l-5.73 5.58a3.32 3.32 0 010-4.63l5.73 5.58zm-6.71 0a4.68 4.68 0 006.7 0l-5.72-5.58a3.32 3.32 0 014.75 0l-5.73 5.58zm-5.33-19A3.24 3.24 0 0119 18.18h-8a4.76 4.76 0 004.76 4.76v-8zM25 26.47a5.06 5.06 0 00-5.8-1l3.45 7.2c-1 .49-2.4.4-3.38-.62L25 26.46z" fill="#fff" mask="url(#a)"/>
    <path fill="#fff" d="M15 6V2h1.5v4z"/>
    <rect x="8" y="2" width="15.5" height="1.5" rx=".75" fill="#fff"/>
  </symbol>


  <!-- catalog plus mobile -->

  <symbol id="plus-mobile" xmlns="http://www.w3.org/2000/svg" viewBox="0 0 30 30">
    <path fill="#d3d3d3" d="M30 14H16V0h-2v14H0v2h14v14h2V16h14z"/>
  </symbol>


  <!-- catalog plus -->

  <symbol id="plus" xmlns="http://www.w3.org/2000/svg" viewBox="0 0 60 60">
    <path fill="#d3d3d3" d="M60 29.5H30.5V0h-1v29.5H0v1h29.5V60h1V30.5H60z"/>
  </symbol>


  <!-- catalog present -->

  <symbol id="present" fill="none" xmlns="http://www.w3.org/2000/svg" viewBox="0 0 78 80">
    <path d="M64.02 34.71H14.03a3.17 3.17 0 01-3.18-3.16v-9.47a3.17 3.17 0 013.18-3.16h49.98a3.17 3.17 0 013.19 3.16v9.47a3.17 3.17 0 01-3.18 3.16zM14.03 21.35c-.4 0-.74.33-.74.73v9.47c0 .41.33.74.74.74h49.98c.41 0 .75-.33.75-.74v-9.47c0-.4-.34-.73-.75-.73H14.03z" fill="#fff"/>
    <path d="M57.04 67.15H21a6.11 6.11 0 01-6.13-6.09V33.5c0-.67.55-1.2 1.22-1.2.68 0 1.22.53 1.22 1.2v27.56A3.68 3.68 0 0021 64.73h36.04a3.68 3.68 0 003.7-3.67V33.5a1.22 1.22 0 012.44 0v27.56a6.11 6.11 0 01-6.14 6.09z" fill="#fff"/>
    <path d="M39.02 67.15c-.67 0-1.22-.54-1.22-1.21V33.5c0-.67.55-1.2 1.22-1.2.68 0 1.22.53 1.22 1.2v32.44c0 .67-.54 1.2-1.22 1.2zM23.81 21.34a7.8 7.8 0 01-3.17-10.6A7.9 7.9 0 0131.3 7.6c5.82 3.13 8.96 11.86 9.09 12.23l-2.3.8c-.03-.08-2.96-8.22-7.95-10.9a5.46 5.46 0 00-7.36 2.17 5.39 5.39 0 002.2 7.32l-1.17 2.13z" fill="#fff"/>
    <path d="M54.23 21.34l-1.16-2.13a5.38 5.38 0 00-1.03-9.92 5.43 5.43 0 00-4.14.43c-4.98 2.68-7.91 10.82-7.94 10.9l-2.3-.8c.13-.37 3.27-9.1 9.08-12.23a7.86 7.86 0 0111.29 9.1c-.6 2-1.95 3.66-3.8 4.65zM61.95 50.93H16.09c-.67 0-1.22-.54-1.22-1.2 0-.68.55-1.22 1.22-1.22h45.86c.67 0 1.22.54 1.22 1.21 0 .67-.55 1.21-1.22 1.21z" fill="#fff"/>
  </symbol>


  <!-- form tick -->

  <symbol id="tick" xmlns="http://www.w3.org/2000/svg" viewBox="0 0 21.1 15.5">
    <path d="M20.1 0L7.7 13.3 1 6.1 0 7.2l7.6 8.2.1.1L21 1.2l.1-.1z"/>
  </symbol>


  <!-- form mail -->

  <symbol id="mail" xmlns="http://www.w3.org/2000/svg" viewBox="0 0 17 13">
    <path d="M15.6 11.6H1.4V5.8H0V13h17V5.8h-1.4v5.8zM0 0v2.3l8.5 7.1L17 2.3V0H0zm15.6 1.6L8.5 7.5 1.4 1.6v-.2h14.2v.2z"/>
  </symbol>


  <!-- form phone -->

  <symbol id="phone" xmlns="http://www.w3.org/2000/svg" viewBox="0 0 20 20">
    <path d="M17.9 9.4H9.4v1.2h8.5l-2.1 2.1.9.9 3.1-3.1c.2-.2.2-.6 0-.9l-3.1-3.1-.9.9 2.1 2zM8.1 19.4v-6.2c0-.3-.3-.6-.6-.6H3.1c0 .7.6 1.2 1.2 1.2h2.5v5H3.1c-1 .1-1.8-.7-1.9-1.7v-14c0-1 .8-1.8 1.7-1.8H6.8v5H4.4c-.7 0-1.2.6-1.2 1.2h4.4c.3 0 .6-.3.6-.6V.6C8.1.3 7.8 0 7.5 0H3.1A3 3 0 000 2.9V16.8c-.1 1.7 1.2 3.1 2.9 3.1H7.5c.3.1.6-.2.6-.5z"/>
  </symbol>


  <!-- vkontakte -->

  <symbol id="vk" xmlns="http://www.w3.org/2000/svg" viewBox="0 0 22 12">
    <path d="M17.6 12c-.3 0-.9-.1-1.5-.5-.5-.3-.9-.7-1.3-1.2-.3-.3-.9-.9-1.1-.9-.2.1-.4.7-.3 1.2 0 .1 0 .6-.3.9-.3.3-.8.4-.9.4h-1.4c-.7 0-3.2-.2-5.4-2.3C2.5 7.1.2 2.2.1 2 0 1.6-.1 1.2.2.9s.8-.4 1-.4h3.1c.1 0 .4.1.7.3.3.2.4.5.5.6.7 1.5 1.5 2.8 2.6 4 .1-.4.2-1.4.1-2.3 0-.4-.1-.8-.2-1-.1-.1-.3-.2-.5-.2l-.6-.5c0-.5.5-.9.9-1.1.5-.2 1.3-.3 2.3-.3h.5c.9 0 1.2.1 1.6.1 1.2.3 1.2 1.3 1.1 2.5v1.6c0 .3 0 .8.1 1 .2-.1.6-.5 1.5-1.9.6-.9 1-1.9 1.1-2.1.1-.3.4-.7 1.2-.7h3.4c.7 0 1.2.2 1.3.7.2.5.1 1.3-1.7 3.5-.3.3-.5.6-.7.9-.5.4-.9 1-.9 1.1s.5.5.9.9c1.1.9 1.9 1.7 2.2 2.3.4.6.3 1 .2 1.3-.3.7-1.2.7-1.4.8h-2.9zm-3.9-3.7c.7 0 1.2.6 1.8 1.2.4.4.7.8 1.1 1 .5.3 1 .3 1 .3h2.9c.1 0 .3-.1.4-.1 0 0 0-.1-.1-.1-.3-.5-1-1.3-2-2.1-.9-.7-1.3-1.1-1.4-1.7 0-.6.4-1.1 1.2-2.1.2-.2.4-.5.7-.8 1.1-1.4 1.4-2 1.5-2.3h-3.9c0 .4-.5 1.5-1.1 2.4-1.4 2.1-2 2.4-2.5 2.4-.1 0-.3 0-.4-.1-.7-.4-.7-1.4-.7-2.1V2.6c.1-1.3 0-1.3-.3-1.4-.3-.1-.5-.1-1.4-.1H10c-.5 0-1 0-1.4.1l.2.2c.4.5.4 1.5.4 1.7.1 1.3 0 2.9-.7 3.3-.1 0-.2.1-.4.1-.6 0-1.3-.7-2.5-2.5C5 2.9 4.5 1.8 4.5 1.8s0-.1-.1-.1-.2-.1-.2-.1h-3c.4.9 2.5 5 4.8 7.2 2 1.9 4.3 2 4.7 2h1.4s.2 0 .2-.1v-.1c0-.2 0-2 1.2-2.3h.2z"/>
  </symbol>


  <!-- instagram -->

  <symbol id="insta" xmlns="http://www.w3.org/2000/svg" viewBox="0 0 16.1 16">
    <path d="M11.8 1C13.6 1 15 2.4 15 4.2v7.7c0 1.7-1.4 3.1-3.1 3.1H4.2C2.4 15 1 13.6 1 11.8V4.2C1 2.4 2.4 1 4.2 1h7.6m0-1H4.2C1.9 0 0 1.9 0 4.2v7.7C0 14.1 1.9 16 4.2 16h7.7c2.3 0 4.2-1.9 4.2-4.2V4.2C16 1.9 14.1 0 11.8 0z"/>
    <path d="M8 4.9c1.7 0 3.1 1.4 3.1 3.1S9.7 11.1 8 11.1 4.9 9.7 4.9 8 6.3 4.9 8 4.9m0-1C5.7 3.9 3.9 5.7 3.9 8s1.8 4.1 4.1 4.1 4.1-1.8 4.1-4.1S10.3 3.9 8 3.9z"/>
    <circle cx="12.3" cy="3.7" r=".9"/>
  </symbol>


  <!-- facebook -->

  <symbol id="fb" xmlns="http://www.w3.org/2000/svg" viewBox="0 0 10 19">
    <path d="M7.1 19H2v-8.8H0V5.8h1.9c-.1-2 .2-3.4 1.1-4.4C3.8.5 5 .1 6.5 0H10v4.2H7.2c-.1.2-.2.8-.2 1.6h3v4.4H7.1V19zm-4-1h2.8V9.1h2.9V6.8H5.9v-.5c0-1.4 0-2.6.7-3.1l.1-.1h2.1V1H6.5c-1.2.1-2 .4-2.6 1-.8.8-1 2.3-.8 4.2l.1.6H1.1v2.3h2V18z"/>
  </symbol>


  <!-- htmlacademy -->

  <symbol id="htmlacademy" xmlns="http://www.w3.org/2000/svg" viewBox="0 0 39.4 50">
    <path d="M19.9 0h-.2L0 2.1v36.2L19.7 50l19.7-11.7V2.1zm17 36.8L19.7 47 2.5 36.8V22l17.1 10.2V34L7.9 27v1.8l11.8 7.1v1.9l-11.8-7v1.8l11.8 7 11.9-7.1v-7.6l5.3-3.2zm-.1-17l-4.7 2.8-2.2 1.3-10.3-6.1v1.8l8.8 5.3h-.1l-.2.1-1.3.7-7.3-4.3v1.8l5.8 3.4-1.4.9-4.3-2.6v1.8l2.9 1.7-2.9 1.7L2.6 20l17-10.2zm.1-1.8L19.6 7.8 2.5 18V4.4l17.2-1.8 17.2 1.8z"/>
  </symbol>


</svg>
