<?xml version="1.0" encoding="UTF-8"?><!DOCTYPE svg PUBLIC "-//W3C//DTD SVG 1.1//EN" "http://www.w3.org/Graphics/SVG/1.1/DTD/svg11.dtd"><svg xmlns="http://www.w3.org/2000/svg" xmlns:xlink="http://www.w3.org/1999/xlink"><defs>
    <clipPath id="clip0">
      <path fill="#fff" transform="translate(0 11)" d="M0 0h67v28H0z"/>
    </clipPath>
  
    <clipPath id="clip0">
      <path fill="#fff" transform="translate(7)" d="M0 0h36v50H0z"/>
    </clipPath>
  
      <clipPath id="clip0">
        <path fill="#fff" d="M0 0h30v32H0z"/>
      </clipPath>
    
      <mask id="a" x="0" y="7.51" width="28.29" height="23.51" maskUnits="userSpaceOnUse">
        <path d="M28.65 26.82V8.16c0-.58-.38-.65-.53-.66h-.5c-.5 0-.54.56-.54.74V26.84a2.75 2.75 0 01-.82 1.89 2.31 2.31 0 01-1.62.6H3.98a2.23 2.23 0 01-1.6-1 3 3 0 01-.46-1.85V8.31c0-.83-.67-.81-.67-.81H.94c-.53 0-.58.59-.59.78v18.54a4.12 4.12 0 001.55 3.33 3.64 3.64 0 002.38.85h20.58a3.89 3.89 0 002.91-1.56 4.37 4.37 0 00.88-2.62z" fill="#fff" transform="translate(-.35 .01)"/>
      </mask>
    
      <clipPath id="a">
        <path fill="none" d="M0 0h201.99v59.48H0z"/>
      </clipPath>
    
    <clipPath id="clip0">
      <path fill="#fff" d="M0 0h174v51.68H0z"/>
    </clipPath>
  </defs><symbol id="icon-cat-pro" viewBox="0 0 67 50">
  <circle cx="34.5" cy="25" r="25" fill="#68B738"/>
  <g clip-path="url(#clip0)">
    <path d="M61.55 13.9a7.6 7.6 0 012.25-2.3c.5-.35.8-.35 1.1.3.4.95.75 1.95.45 3a1.15 1.15 0 00.2 1.05c.3.4.55.8.8 1.15a3.14 3.14 0 01.45 3.1c-.18.5-.22 1.03-.1 1.55.1.5.1 1 0 1.5a1.88 1.88 0 01-1.35 1.6 2.6 2.6 0 00-1.6 1 .53.53 0 01-.45.25c-.6.1-2.1-1.25-2.1-1.85v-.3c.05-1.8-.05-1.95-1.7-2.7a2.2 2.2 0 01-.9-.6c-.3-.4-.7-.35-1.15-.2-.45.15-.7.45-.65.95.15 1.21.2 2.43.15 3.65 0 .14.04.28.1.4 1.55 2.25 2.15 4.9 2.9 7.45.6 1.95 1.7 3 3.7 3.15.32.03.64.08.95.15a2.08 2.08 0 011.7 1.6c.35 1.05.15 1.3-.9 1.3h-3.25c-.42.02-.83-.12-1.15-.4a5.86 5.86 0 00-1.7-1 3.63 3.63 0 01-1.7-1.3 14.3 14.3 0 00-2-2.25c-1.4-1.45-2.9-2.85-4.2-4.35a5.69 5.69 0 01-1.6-3.8c0-.45-.1-.65-.6-.45a.96.96 0 01-.5.15c-1.4 0-2.1.85-2.6 2.1-.45 1.05-1.05 2.05-1.6 3.1A5.2 5.2 0 0044 33c0 1.2.3 1.6 1.4 2 .7.25 1.35.5 1.7 1.2.4.8.3 1-.55 1.05h-3.4a.94.94 0 01-.95-.55l-.9-1.5a3.02 3.02 0 01-.35-2.7c.22-.87.23-1.77.05-2.65a4.2 4.2 0 01.85-3.5c.3-.35.3-.5-.2-.6a25.03 25.03 0 01-5.95-2.1c-1.6-.6-1.9-.5-2.35 1.15-.4 1.4-.8 2.8-1.1 4.25-.35 1.6.05 3.1.55 4.6.2.6.8.55 1.25.7 1 .3 1.85.7 2.25 1.75.35.8.3.9-.55.9-.85 0-1.7-.05-2.6 0-.76.01-1.5-.23-2.1-.7-2.4-1.6-3.1-4.05-3.3-6.7-.1-1.65-1-2.95-2.05-4.2-.2-.25-.4-.35-.7-.15-1.07.6-2.2 1.1-3.35 1.5a13.35 13.35 0 00-6.1 4.4 5.31 5.31 0 00-1.1 2.55c-.15.9.1 1.3 1 1.55s1.35.75 1.45 1.7c.05.4-.1.6-.5.6h-4.05a.83.83 0 01-.65-.4 4.28 4.28 0 01-.95-2.75 25.3 25.3 0 01.45-5.15 3.15 3.15 0 011.7-2.4c2.95-1.4 4.5-4.05 5.9-6.8.3-.55.05-.65-.45-.6-1.4.2-2.73.75-3.85 1.6a35.3 35.3 0 00-4.15 3.55 8.34 8.34 0 01-5.15 2.45c-3.65.2-5.35-1.85-5.2-5.15.03-1.13.46-2.2 1.2-3.05a2.13 2.13 0 012.25-.75c.75.2.95.6.65 1.35-.15.3-.35.55-.5.85-.22.3-.38.64-.5 1-.55 1.5.2 2.55 1.75 2.7 1.65.15 3-.55 4.25-1.55 1.5-1.2 2.85-2.6 4-4.15a10.4 10.4 0 017.2-4.05c1.15-.15 2.15-.65 3.25-.95 2.06-.63 4.2-.93 6.35-.9a6.5 6.5 0 002.9-.55c2.45-1 5-1 7.55-.5 2 .4 4 .9 5.95 1.4a8.3 8.3 0 003.5-.1c2.2-.56 4.44-.9 6.7-1a9.08 9.08 0 014.3.85c1 .45 1 .45.75 1.4z" fill="#000"/>
  </g>
  
</symbol><symbol id="icon-cat-slim" viewBox="0 0 50 53">
  <circle cx="25" cy="28" r="25" fill="#68B738"/>
  <g clip-path="url(#clip0)">
    <path d="M35.2 0H35c-.32.19-.59.47-.74.82a8.03 8.03 0 00-.67 1.76.84.84 0 01-.76.69 3.77 3.77 0 00-2.69 1.95c-.37.66-.69 1.35-.95 2.06-.73 1.9-1.29 3.85-1.98 5.77-.32.87-.34.87-1.32.87-1.16 0-1.08-.18-1.1 1.1 0 .41.13.62.56.6.13 0 .33-.07.39.1.05.18-.13.26-.23.36a4.63 4.63 0 01-2.23 1.26c-.97.26-1.97.47-2.92.79-2.45.82-4.7 1.96-6.46 3.9a14.44 14.44 0 00-2.44 4.04c-1.89 4.46-2.8 9.15-3.51 13.88a97.06 97.06 0 00-.75 6.7C7.1 47.75 7 48.88 7 50h17.14c.03-.23-.01-.46-.12-.66a2.58 2.58 0 00-1.97-1.58c-.36-.08-.4-.2-.18-.48.36-.48.64-1.02.82-1.6.84-2.47 1.16-5.06 1.57-7.62.23-1.96.83-3.85 1.77-5.59a11.13 11.13 0 012.87-3.28c.43-.32.45-.32.52.23.05.36.06.74.09 1.11.15 2.44.12 4.88-.1 7.31-.2 1.88-.22 3.78-.07 5.67.2 2.2.59 4.36 1.16 6.49h6.84a2.8 2.8 0 00-2.18-2.29c-.64-.1-1.3-.07-1.93.1-.31.08-.44 0-.46-.33-.22-2.73-.04-5.47.51-8.16a91.8 91.8 0 001.57-9.37c.14-1.27.54-2.5 1.18-3.6.6-1.1 1.14-2.23 1.74-3.33a3.03 3.03 0 00.22-2.67c-.14-.37-.27-.74-.44-1.1-.52-1-1.03-2-1.5-3-.26-.52-.2-.59.36-.6.84 0 .84 0 .86-.85v-.34c0-.35-.14-.55-.52-.51h-.78c-.36 0-.46-.15-.37-.52a3.22 3.22 0 012.64-2.28 11.3 11.3 0 013.4.22.51.51 0 00.65-.33 40 40 0 01.66-1.55.52.52 0 00-.05-.58c-1.65-2.1-3.43-4.05-5.87-5.3a.77.77 0 01-.45-.58c-.14-.74-.35-1.46-.65-2.14A1.8 1.8 0 0035.2 0z" fill="#000"/>
  </g>
  
</symbol><symbol id="icon-clock" viewBox="0 0 32 33">
  <circle cx="21.2" cy="11.33" fill="#fff" r="1.09"/>
  <circle cx="10.33" cy="11.33" fill="#fff" r="1.09"/>
  <circle cx="10.33" cy="24.35" fill="#fff" r="1.09"/>
  <circle cx="15.77" cy="26.52" fill="#fff" r="1.09"/>
  <circle cx="7.07" cy="17.77" fill="#fff" r="1.09"/>
  <circle cx="24.47" cy="17.77" fill="#fff" r="1.09"/>
  <circle cx="21.2" cy="24.35" fill="#fff" r="1.09"/>
  <path fill-rule="evenodd" clip-rule="evenodd" d="M20.92 29.06c.41-.2.9-.13 1.22.2l1.82 1.87c.27.27.71.27.98 0a.68.68 0 000-.95l-1.36-1.4c-.42-.43-.36-1.14.1-1.55A12.75 12.75 0 0028 17.61C28 10.65 22.52 5 15.77 5 9 5 3.54 10.65 3.54 17.61c0 3.82 1.64 7.24 4.23 9.55.45.4.51 1.11.1 1.55l-1.44 1.47a.68.68 0 00.98.95l1.87-1.93c.32-.33.82-.4 1.23-.2a11.88 11.88 0 0010.41.06zm-5.15-.23c6 0 10.87-5.02 10.87-11.22 0-6.19-4.87-11.2-10.87-11.2-6 0-10.88 5.01-10.88 11.2 0 6.2 4.87 11.22 10.88 11.22zM15 17.3V9.94a.78.78 0 011.56 0v8.18a.8.8 0 01-.8.8.76.76 0 01-.76-.75V17.3z" fill="#fff"/>
  <path fill="#fff" d="M15 6V2h1.5v4z"/>
  <rect x="8" y="2" width="15.5" height="1.5" rx=".75" fill="#fff"/>
</symbol><symbol id="icon-close" viewBox="0 0 18 18">
  <polygon points="18,1.3 16.7,0 9,7.7 1.3,0 0,1.3 7.7,9 0,16.7 1.3,18 9,10.3 16.7,18 18,16.7 10.3,9 "/>
</symbol><symbol id="icon-eat" viewBox="0 0 23 30">
    <path d="M18.19 30c-.45 0-.82-.28-.82-.63V.63c0-.34.37-.62.82-.62.45 0 .81.28.81.63v28.75c0 .34-.36.62-.81.62z" fill="#fff"/>
    <path d="M22.3 19.38h-4.22c-.39 0-.7-.28-.7-.63s.31-.63.7-.63h3.51C21.5 7.63 19 3.72 18 3.5c-.39 0-.63-2.53-.63-2.88 0-.34.32-.62.71-.62C21.02 0 23 9.7 23 18.75c0 .35-.31.63-.7.63zM6 11.25c-2.76 0-5-1.96-5-4.38V.63c0-.34.32-.62.71-.62.4 0 .89.28.89.63v6.25C2.6 8.6 4.03 9.5 6 9.5s3.5-1 3.5-2.5V.62c0-.34.4-.62.79-.62.4 0 .71.28.71.63v6.25c0 2.4-2.24 4.37-5 4.37z" fill="#fff"/>
    <path d="M6 30c-.55 0-1-.28-1-.63V.63C5 .28 5.45 0 6 0s1 .28 1 .63v28.75c0 .34-.45.62-1 .62z" fill="#fff"/>
</symbol><symbol id="icon-fb" viewBox="0 0 22 22"><path d="M7.1 19H2v-8.8H0V5.8h1.9c-.1-2 .2-3.4 1.1-4.4C3.8.5 5 .1 6.5 0H10v4.2H7.2c-.1.2-.2.8-.2 1.6h3v4.4H7.1V19zm-4-1h2.8V9.1h2.9V6.8H5.9v-.5c0-1.4 0-2.6.7-3.1l.1-.1h2.1V1H6.5c-1.2.1-2 .4-2.6 1-.8.8-1 2.3-.8 4.2l.1.6H1.1v2.3h2V18z"/></symbol><symbol id="icon-htmlacademy" viewBox="0 0 39.4 50">
    <path d="M19.9 0h-.2L0 2.1v36.2L19.7 50l19.7-11.7V2.1zm17 36.8L19.7 47 2.5 36.8V22l17.1 10.2V34L7.9 27v1.8l11.8 7.1v1.9l-11.8-7v1.8l11.8 7 11.9-7.1v-7.6l5.3-3.2zm-.1-17l-4.7 2.8-2.2 1.3-10.3-6.1v1.8l8.8 5.3h-.1l-.2.1-1.3.7-7.3-4.3v1.8l5.8 3.4-1.4.9-4.3-2.6v1.8l2.9 1.7-2.9 1.7L2.6 20l17-10.2zm.1-1.8L19.6 7.8 2.5 18V4.4l17.2-1.8 17.2 1.8z"/>
</symbol><symbol id="icon-insta" viewBox="0 0 16.1 16">
    <path d="M11.8 1C13.6 1 15 2.4 15 4.2v7.7c0 1.7-1.4 3.1-3.1 3.1H4.2C2.4 15 1 13.6 1 11.8V4.2C1 2.4 2.4 1 4.2 1h7.6m0-1H4.2C1.9 0 0 1.9 0 4.2v7.7C0 14.1 1.9 16 4.2 16h7.7c2.3 0 4.2-1.9 4.2-4.2V4.2C16 1.9 14.1 0 11.8 0z"/>
    <path d="M8 4.9c1.7 0 3.1 1.4 3.1 3.1S9.7 11.1 8 11.1 4.9 9.7 4.9 8 6.3 4.9 8 4.9m0-1C5.7 3.9 3.9 5.7 3.9 8s1.8 4.1 4.1 4.1 4.1-1.8 4.1-4.1S10.3 3.9 8 3.9z"/>
    <circle cx="12.3" cy="3.7" r=".9"/>
</symbol><symbol id="icon-leaf" viewBox="0 0 30 32">
    <g clip-path="url(#clip0)">
      <path d="M27.84 2.77a.95.95 0 00-.9-.77h-.01c-4.94.03-16.95.92-21.8 8.38-2.51 3.88-2.73 8.91-.64 14.96l.07.13a25.93 25.93 0 00-1.04 3.32c-.11.54.21 1.07.72 1.19a.88.88 0 00.2.02c.43 0 .81-.32.9-.79.03-.1 2.42-10.37 10.86-16.38.43-.3.55-.93.26-1.39a.9.9 0 00-1.3-.27c-4.79 3.4-7.74 8-9.47 11.65-1.24-4.57-.92-8.37.99-11.3 3.74-5.77 12.62-7.16 17.98-7.45-1.16 1.8-2.41 5.1-2.41 10.93 0 3.12-.83 5.52-2.47 7.14-2.62 2.6-6.88 2.83-10 2.58-.51-.04-.96.38-1 .93-.04.55.35 1.03.86 1.07.63.05 1.3.08 1.98.08 3.18 0 6.87-.66 9.43-3.2 2.04-2 3.07-4.9 3.07-8.6 0-9.1 3.22-11.1 3.23-11.1.4-.21.6-.68.5-1.13z" fill="#fff"/>
    </g>
    
  </symbol><symbol id="icon-mail" viewBox="0 0 17 13">
  <path d="M15.6,11.6H1.4V5.8H0V13h17V5.8h-1.4V11.6z M0,0v2.3l8.5,7.1L17,2.3V0H0z M15.6,1.6L8.5,7.5L1.4,1.6V1.4h14.2L15.6,1.6z"/>
</symbol><symbol id="icon-mobile-menu" viewBox="0 0 24 18">
  <rect y="16" width="24" height="2"/>
  <rect y="8" width="24" height="2"/>
  <rect width="24" height="2"/>
</symbol><symbol id="icon-phone" viewBox="0 0 20 20">
  <path d="M17.9,9.4H9.4v1.2h8.5l-2.1,2.1l0.9,0.9l3.1-3.1c0.2-0.2,0.2-0.6,0-0.9l-3.1-3.1l-0.9,0.9L17.9,9.4z"/>
  <path d="M8.1,19.4v-6.2c0-0.3-0.3-0.6-0.6-0.6H4.4l0,0H3.1l0,0c0,0.7,0.6,1.2,1.2,1.2h2.5v5H3.1c-1,0.1-1.8-0.7-1.9-1.7
  c0-0.1,0-0.1,0-0.2V3.1c0-1,0.8-1.8,1.7-1.8c0.1,0,0.1,0,0.2,0h3.7v5H4.4c-0.7,0-1.2,0.6-1.2,1.2h4.4c0.3,0,0.6-0.3,0.6-0.6V0.6
  C8.1,0.3,7.8,0,7.5,0H3.1C1.5-0.1,0.1,1.2,0,2.9C0,3,0,3.1,0,3.1v13.7c-0.1,1.7,1.2,3.1,2.9,3.1c0.1,0,0.2,0,0.2,0h4.4
  C7.8,20,8.1,19.7,8.1,19.4z"/>
</symbol><symbol id="icon-plus-mobile" viewBox="0 0 30 30">
  <style type="text/css">
    .st0 {
      fill: #231F20;
    }
  </style>
  <polygon class="st0" points="30,14 16,14 16,0 14,0 14,14 0,14 0,16 14,16 14,30 16,30 16,16 30,16 "/>
</symbol><symbol id="icon-plus" viewBox="0 0 60 60">
  <style type="text/css">
    .st0 {
      fill: #231F20;
    }
  </style>
  <polygon class="st0" points="60,29.5 30.5,29.5 30.5,0 29.5,0 29.5,29.5 0,29.5 0,30.5 29.5,30.5 29.5,60 30.5,60 30.5,30.5
  60,30.5 "/>
</symbol><symbol id="icon-powder" viewBox="0 0 28.29 31.02">
    
    <path d="M20.43 18.48a3.31 3.31 0 000 6.61 3.31 3.31 0 000-6.61zm0 5a1.72 1.72 0 111.6-1.71 1.66 1.66 0 01-1.6 1.73zM11.26.01a3.3 3.3 0 00-3.19 3.4 3.3 3.3 0 003.19 3.4 3.29 3.29 0 003.18-3.4 3.29 3.29 0 00-3.18-3.4zm0 5.48a2 2 0 01-1.94-2.08 2 2 0 011.94-2.07 2 2 0 011.93 2.07 2 2 0 01-1.93 2.07zM7.88 17.62a2.51 2.51 0 000 5 2.51 2.51 0 000-5zm10.27-7.85a7.61 7.61 0 016.18 1.5c.91.76 1.76 1.33 1.15 2.12-.34.34-.64.66-1.72-.53a6.94 6.94 0 00-5.61-1.44 6.2 6.2 0 00-3.56 2.15 8.23 8.23 0 01-6.49 2.49 8.12 8.12 0 01-5.25-2.54 1 1 0 01-.12-1.13.85.85 0 011.2-.13 7 7 0 003.82 2.07 6.45 6.45 0 005.74-2c2.31-2.14 3.46-2.32 4.66-2.56z" fill="#fff"/>
    <path d="M28.3 26.83V8.17c0-.58-.38-.65-.53-.66h-.5c-.5 0-.54.56-.54.74V26.85a2.75 2.75 0 01-.82 1.89 2.31 2.31 0 01-1.62.6H3.63a2.23 2.23 0 01-1.6-1 3 3 0 01-.46-1.85V8.32c0-.83-.67-.81-.67-.81H.59c-.53 0-.58.59-.59.78v18.54a4.12 4.12 0 001.55 3.33 3.64 3.64 0 002.38.85h20.58a3.89 3.89 0 002.91-1.56 4.37 4.37 0 00.88-2.62z" fill="#fff"/>
</symbol><symbol id="icon-present" viewBox="0 0 78 80">
  <path d="M64.02 34.71H14.03a3.17 3.17 0 01-3.18-3.16v-9.47a3.17 3.17 0 013.18-3.16h49.98a3.17 3.17 0 013.19 3.16v9.47a3.17 3.17 0 01-3.18 3.16zM14.03 21.35c-.4 0-.74.33-.74.73v9.47c0 .41.33.74.74.74h49.98c.41 0 .75-.33.75-.74v-9.47c0-.4-.34-.73-.75-.73H14.03z" fill="#fff"/>
  <path d="M57.04 67.15H21a6.11 6.11 0 01-6.13-6.09V33.5c0-.67.55-1.2 1.22-1.2.68 0 1.22.53 1.22 1.2v27.56A3.68 3.68 0 0021 64.73h36.04a3.68 3.68 0 003.7-3.67V33.5a1.22 1.22 0 012.44 0v27.56a6.11 6.11 0 01-6.14 6.09z" fill="#fff"/>
  <path d="M39.02 67.15c-.67 0-1.22-.54-1.22-1.21V33.5c0-.67.55-1.2 1.22-1.2.68 0 1.22.53 1.22 1.2v32.44c0 .67-.54 1.2-1.22 1.2zM23.81 21.34a7.8 7.8 0 01-3.17-10.6A7.9 7.9 0 0131.3 7.6c5.82 3.13 8.96 11.86 9.09 12.23l-2.3.8c-.03-.08-2.96-8.22-7.95-10.9a5.46 5.46 0 00-7.36 2.17 5.39 5.39 0 002.2 7.32l-1.17 2.13z" fill="#fff"/>
  <path d="M54.23 21.34l-1.16-2.13a5.38 5.38 0 00-1.03-9.92 5.43 5.43 0 00-4.14.43c-4.98 2.68-7.91 10.82-7.94 10.9l-2.3-.8c.13-.37 3.27-9.1 9.08-12.23a7.86 7.86 0 0111.29 9.1c-.6 2-1.95 3.66-3.8 4.65zM61.95 50.93H16.09c-.67 0-1.22-.54-1.22-1.2 0-.68.55-1.22 1.22-1.22h45.86c.67 0 1.22.54 1.22 1.21 0 .67-.55 1.21-1.22 1.21z" fill="#fff"/>
</symbol><symbol id="icon-right-arrow-long" viewBox="0 0 24.2 11">
  <style type="text/css">
    .st0 {
      fill: #3F4242;
    }
  </style>
  <polygon class="st0" points="17.6,0 24.2,5.5 17.6,11 17.6,6.6 0,6.6 0,4.4 17.6,4.4 "/>
</symbol><symbol id="icon-right-arrow-verylong" viewBox="0 0 32 11">
  <style type="text/css">
    .st0 {
      fill: #3F4242;
    }
  </style>
  <polygon class="st0" points="25.4,0 32,5.5 25.4,11 25.4,6.6 0,6.6 0,4.4 25.4,4.4 "/>
</symbol><symbol id="icon-tick" viewBox="0 0 21.1 15.5">
  <polygon points="20.1,0 7.7,13.3 1,6.1 0,7.2 7.6,15.4 7.7,15.5 21,1.2 21.1,1.1 "/>
</symbol><symbol id="icon-vk" viewBox="0 0 22 12">
    <path d="M17.6 12c-.3 0-.9-.1-1.5-.5-.5-.3-.9-.7-1.3-1.2-.3-.3-.9-.9-1.1-.9-.2.1-.4.7-.3 1.2 0 .1 0 .6-.3.9-.3.3-.8.4-.9.4h-1.4c-.7 0-3.2-.2-5.4-2.3C2.5 7.1.2 2.2.1 2 0 1.6-.1 1.2.2.9s.8-.4 1-.4h3.1c.1 0 .4.1.7.3.3.2.4.5.5.6.7 1.5 1.5 2.8 2.6 4 .1-.4.2-1.4.1-2.3 0-.4-.1-.8-.2-1-.1-.1-.3-.2-.5-.2l-.6-.5c0-.5.5-.9.9-1.1.5-.2 1.3-.3 2.3-.3h.5c.9 0 1.2.1 1.6.1 1.2.3 1.2 1.3 1.1 2.5v1.6c0 .3 0 .8.1 1 .2-.1.6-.5 1.5-1.9.6-.9 1-1.9 1.1-2.1.1-.3.4-.7 1.2-.7h3.4c.7 0 1.2.2 1.3.7.2.5.1 1.3-1.7 3.5-.3.3-.5.6-.7.9-.5.4-.9 1-.9 1.1s.5.5.9.9c1.1.9 1.9 1.7 2.2 2.3.4.6.3 1 .2 1.3-.3.7-1.2.7-1.4.8h-2.9zm-3.9-3.7c.7 0 1.2.6 1.8 1.2.4.4.7.8 1.1 1 .5.3 1 .3 1 .3h2.9c.1 0 .3-.1.4-.1 0 0 0-.1-.1-.1-.3-.5-1-1.3-2-2.1-.9-.7-1.3-1.1-1.4-1.7 0-.6.4-1.1 1.2-2.1.2-.2.4-.5.7-.8 1.1-1.4 1.4-2 1.5-2.3h-3.9c0 .4-.5 1.5-1.1 2.4-1.4 2.1-2 2.4-2.5 2.4-.1 0-.3 0-.4-.1-.7-.4-.7-1.4-.7-2.1V2.6c.1-1.3 0-1.3-.3-1.4-.3-.1-.5-.1-1.4-.1H10c-.5 0-1 0-1.4.1l.2.2c.4.5.4 1.5.4 1.7.1 1.3 0 2.9-.7 3.3-.1 0-.2.1-.4.1-.6 0-1.3-.7-2.5-2.5C5 2.9 4.5 1.8 4.5 1.8s0-.1-.1-.1-.2-.1-.2-.1h-3c.4.9 2.5 5 4.8 7.2 2 1.9 4.3 2 4.7 2h1.4s.2 0 .2-.1v-.1c0-.2 0-2 1.2-2.3h.2z"/>
</symbol><symbol id="logo-desktop" viewBox="0 0 202 59.48">
    
    <g clip-path="url(#a)">
      <path d="M59.88 24a25.61 25.61 0 10-27.37 35.2c-.58-2.09-1.17-4.4-1.69-6.85a32.45 32.45 0 004.76 2.55s.12 2.16.28 4.57a25.78 25.78 0 005.33-.47 1.94 1.94 0 010-.76c.29-1.87 1.09-5.24 1.25-7.41a15.36 15.36 0 002.9-3.71l-.06.44c-.55 4.26-1.7 8.81-2.4 10.07a5.91 5.91 0 01-.83 1.15A25.65 25.65 0 0059.88 24zm-1.47 3.79c-.44.43-1.35.72-1.5-.58S56.72 25 56.72 25s-1.93-3.43-2.65-3.47-5.83 3.47-7.18 5c-1.17 1.29-1.4 1.2-1.4 3.47 0 1.71.22 8.17.1 13.11l-8.15 2.17a63.11 63.11 0 01-7.8 1.72l-1-5.83h-.14L25.93 28s-3.81-1.44-5.21-1.83a3.76 3.76 0 00-4 .63 4.89 4.89 0 00-1.28 1.74 4.94 4.94 0 00-.44 2.11 7.25 7.25 0 01.48 1.45c0 .48-1.2.43-2 .43s-.92-1.44-.29-3.13A22.67 22.67 0 0115 25.66a11.83 11.83 0 012.07-2.89s.14-.34 1.25-.24 7.28.47 7.28.47v-2.27a142.77 142.77 0 0120.24-1.34v1.83a22.5 22.5 0 018.14-2 .91.91 0 01.43.1 1 1 0 01.34.29c.34.43 2.41 3 2.65 3.37a28.59 28.59 0 011.83 3 6.22 6.22 0 01-.87 1.84z" fill="#fdc305"/>
      <path d="M56.46 21.67l1 1.29a28.59 28.59 0 011.83 3 6.11 6.11 0 01-.86 1.78c-.44.43-1.35.72-1.5-.58S56.72 25 56.72 25s-1.93-3.43-2.65-3.47-5.83 3.47-7.18 5c-1.17 1.29-1.4 1.2-1.4 3.47 0 1.5.17 6.65.13 11.23 1.81.2 4.47.7 5.27 1.88 0 0-.29-7.18 7.81-3.42 0 0 .28-9.79 11.46-7.28a43.82 43.82 0 00-13.7-10.74zM45.93 19.35a90.73 90.73 0 00-1.4-16.53s-.15-1.3-.87-.24a14.32 14.32 0 00-1.2 4 71.32 71.32 0 00-12.82.34c-.82-2.75-2.22-4-2.89-3.67S26 6.53 26 6.53l-.33 14.16a143 143 0 0120.26-1.34z" fill="#f06351"/>
      <path d="M45.35 47.12c.13-1.07.2-2.49.24-4.06l-8.15 2.17a65.16 65.16 0 01-7.8 1.77l1.11 5a.57.57 0 00.07.33 32.45 32.45 0 004.76 2.55 42.81 42.81 0 006.88-4.13v.06a15.22 15.22 0 002.89-3.69z" fill="#e55645"/>
      <path d="M32 16.22c-.05-.1 1 .68 1.41.92s.61.42.61.59-.26.34-.62.34a1.72 1.72 0 01-1-.26c-.08-.14.6 0 .94 0h.29A8.19 8.19 0 0132 16.22zM39.5 16.33s-1 1.28-1.09 1.34-.17.34.19.29a8.61 8.61 0 001.22-.28c.11-.06.07-.2-.12-.18s-.68.05-1 .11l.85-1.27s.03-.12-.05-.01zM36.36 22.44a2.3 2.3 0 001.09-1c.28-.66 0-.91-.44-1a2.44 2.44 0 00-1.75.34.59.59 0 000 1 5.35 5.35 0 001.1.66z"/>
      <path d="M36 23.7a1.92 1.92 0 01-.46.6 1.71 1.71 0 01-1 .38 2.19 2.19 0 01-1.54-.44 2.08 2.08 0 01-.53-.45 1 1 0 00-.36-.25s.75 4.11 2.57 4.77 2.16-.76 2.21-1.14a5.59 5.59 0 00-.82-3.24c0-.3-.02-.1-.07-.23z" fill="#f06351"/>
      <path d="M34.3 24.84a3.6 3.6 0 01-1.3-.47 3.5 3.5 0 01-1-1 .15.15 0 010-.2H32.15a3.31 3.31 0 00.92.87 3.42 3.42 0 001.19.44 2.21 2.21 0 00.94-.3 2.13 2.13 0 00.7-.7l.14-.19.1.22s.38.76 1 .8 1.06-.42 1.63-1.29a.15.15 0 01.09-.06.14.14 0 01.14.04.15.15 0 01.06.09.14.14 0 010 .11q-1 1.47-1.89 1.41a1.47 1.47 0 01-.64-.24 1.41 1.41 0 01-.53-.47 2.26 2.26 0 01-1.7.94z"/>
      <path d="M36.26 38.3a3.75 3.75 0 10-3.75-3.75 3.75 3.75 0 003.75 3.75z" fill="#fdc305"/>
      <path d="M41.23 31.5l-3.13 1.31 1.15-5.63-7.5 9.76 3.13-1.31-1.15 5.64zm-7.39 3.83L38 29.92l-.81 4 2-.82L35 38.52l.81-4zM32.44 33.86a1.12 1.12 0 10-1.12-1.12 1.12 1.12 0 001.12 1.12zM39 37.92a.79.79 0 10-.79-.79.79.79 0 00.79.79zM39.92 35.75a.35.35 0 10-.35-.35.35.35 0 00.35.35z" fill="#111"/>
      <path d="M45.88 21.16a56.87 56.87 0 00-5.09 5.21 32 32 0 01-5.31 4.9c-.22-.53-1.63-1.52-1.63-1.52s-3.14-2.15-5.2-3.84a32.94 32.94 0 01-3.14-3l-2-.11a22.65 22.65 0 0012 8.84c.86-.14 3.28-1.87 5.09-3.28a57.73 57.73 0 006-5.91 6.41 6.41 0 001.14-2c-1.14.38-1.86.71-1.86.71z" fill="#f06351"/>
      <path d="M65.22 3.5l-8.46 9.44-1.22-2L63.69 0zM62.65 17.26l5.54-4.11-.78-3.74L62 14.22zM59.92 49.37l6.13 3.18 3-2.34-6.69-2.75zM2 6l3-3.39 9.29 9-1.22 2.28zM7.38 16.28l-4.7-3.13L.28 17l5.15 2.4zM13.91 52.55L9.36 55.9l2.8 3.58 4-4z" fill="#fdc305"/>
      <path d="M25.93 28s-3.81-1.44-5.21-1.83a3.76 3.76 0 00-4 .63 4.89 4.89 0 00-1.28 1.74 4.94 4.94 0 00-.44 2.11 7.25 7.25 0 01.48 1.45c0 .48-1.2.43-2 .43s-.92-1.44-.29-3.13A22.67 22.67 0 0115 25.66c-5.45 2.84-15 9.4-15 9.4a46.7 46.7 0 018.19.24c5.25.53 5 4.67 5 4.67a38.65 38.65 0 015.63-1.11c2.12-.14 2.27 2.12 2.27 2.12l.53 3.86a18 18 0 012.65-2.36 6.07 6.07 0 014.38-1.3z" fill="#f06351"/>
      <path d="M85.66 42a8.31 8.31 0 01-1.4-5.19v-7.5a8.46 8.46 0 011.38-5.24c.93-1.19 2.51-1.79 4.75-1.78s3.76.53 4.55 1.57a6.7 6.7 0 011.33 4.49v1.76h-4.14V28.2a10.85 10.85 0 00-.13-1.5 1.65 1.65 0 00-.47-.95 1.44 1.44 0 00-.54-.3 1.57 1.57 0 00-.61-.07 1.45 1.45 0 00-.87.14 1.43 1.43 0 00-.63.61 5.49 5.49 0 00-.34 2.2v9.52a4.75 4.75 0 00.39 2.2 1.45 1.45 0 00.62.58 1.47 1.47 0 00.83.15 1.37 1.37 0 00.82-.14 1.4 1.4 0 00.58-.6 5.82 5.82 0 00.31-2.19v-2h4.14v1.73A7.25 7.25 0 0195 42.19c-.88 1.1-2.4 1.64-4.56 1.64s-3.85-.6-4.78-1.83zM101.91 22.58h4.74l4 21h-3.94l-.71-4.64h-3.32l-.8 4.61h-4zm3.65 13.72l-1.26-8.44-1.25 8.44zM113.72 25.74h-3.24v-3.16h10.72v3.16H118v17.81h-4.29z" fill="#111"/>
      <path d="M129.61 22.58h8.13v2.18h-5.2v6.93h4.22v2.07h-4.22v7.69h5.25v2.1h-8.18zM140.15 22.58h2l6 13.93V22.58h2.44v21h-1.87l-6-14.32v14.29h-2.48zM153.82 22.58h8.12v2.18h-5.2v6.93H161v2.07h-4.22v7.69H162v2.1h-8.18zM164.35 22.58h4.22a7 7 0 014.67 1.31c1 .87 1.49 2.29 1.49 4.26q0 4-2.59 4.89l3 10.51h-2.84l-2.75-9.84h-2.27v9.84h-2.93zm4 9a3.9 3.9 0 002.7-.76 3.57 3.57 0 00.69-1.27 3.52 3.52 0 00.13-1.44 5.88 5.88 0 00-.29-2 1.9 1.9 0 00-.39-.64 1.76 1.76 0 00-.61-.44 4.65 4.65 0 00-2.05-.35h-1.29v6.94zM178.67 42a9.2 9.2 0 01-1.27-5.35v-7a13.51 13.51 0 01.5-4 4.46 4.46 0 011.74-2.41 5.91 5.91 0 013.36-.84 5.22 5.22 0 012.25.28 5.11 5.11 0 011.93 1.2 7 7 0 011.28 4.63v.78h-2.75v-.65a11.29 11.29 0 00-.18-2.32 2 2 0 00-.76-1.23 3 3 0 00-1.72-.41 2.31 2.31 0 00-2.58 2 14.82 14.82 0 00-.17 2.49V37a7.47 7.47 0 00.59 3.46 2.89 2.89 0 001 .79 2.83 2.83 0 001.25.26 3 3 0 001.24-.31 2.87 2.87 0 001-.83 8.13 8.13 0 00.61-3.65v-1.48h-2.66v-2.07h5.3v10.38h-1.83l-.29-2.41a3.71 3.71 0 01-3.73 2.67 4.67 4.67 0 01-4.11-1.81zM194.69 36.15l-4.53-13.57h2.72l3.21 10.12 3.16-10.12H202l-4.5 13.57v7.4h-2.8z" fill="#444"/>
    </g>
  </symbol><symbol id="logo-footer" viewBox="0 0 127.8 23.4">
    <style>
      .st0{fill:#111}
    </style>
    <path class="st0" d="M1.6 21.5C.6 20.2 0 18.3 0 15.9V7.6c0-2.5.5-4.4 1.5-5.7C2.6.6 4.3 0 6.8 0c2.4 0 4.1.6 5.1 1.7s1.5 2.8 1.5 4.9v2H8.5V6.3c0-.9-.1-1.6-.3-2s-.6-.8-1.4-.8c-.7 0-1.2.2-1.4.7s-.3 1.3-.3 2.2v10.7c0 .9.1 1.6.4 2.1.2.5.7.7 1.4.7s1.1-.2 1.3-.7c.2-.5.3-1.2.3-2.1v-2.4h4.9v2c0 2.1-.5 3.8-1.5 5-1 1.2-2.7 1.8-5.1 1.8-2.4-.1-4.2-.7-5.2-2zM19.3.3H25l4.2 22.8h-4.6l-.8-4.8h-3.3l-.8 4.8H15L19.3.3zm4.1 15l-1.2-8.9-1.2 8.9h2.4zM32.7 4.1h-3.4V.3h11.9V4h-3.4v19.1h-5.1v-19zM50.3.3h8.8v2.4h-5.7v7.5H58v2.3h-4.6v8.4h5.7v2.3h-8.9V.3zM61.7.3h2.2l6.5 15.1V.3H73v22.8h-2L64.4 7.5v15.6h-2.7V.3zM76 .3h8.8v2.4h-5.7v7.5h4.6v2.3h-4.6v8.4h5.7v2.3H76V.3zM87.4.3H92c2.3 0 4 .5 5.1 1.4 1.1.9 1.6 2.5 1.6 4.6 0 2.9-.9 4.7-2.8 5.3L99.1 23H96l-3-10.7h-2.5V23h-3.2V.3zm4.4 9.8c1.4 0 2.3-.3 2.9-.8.6-.5.9-1.5.9-3 0-.9-.1-1.7-.3-2.2-.2-.5-.6-.9-1.1-1.2-.5-.3-1.3-.4-2.2-.4h-1.4V10h1.2zM102.7 21.4c-.9-1.3-1.4-3.2-1.4-5.8V8c0-1.8.2-3.2.5-4.3.4-1.1 1-2 1.9-2.6s2.1-.9 3.7-.9c2.1 0 3.6.5 4.5 1.6s1.4 2.7 1.4 5v.8h-3v-.7c0-1.1-.1-1.9-.2-2.5-.1-.6-.4-1-.8-1.3-.4-.3-1-.5-1.9-.5-.9 0-1.5.2-2 .6s-.7.9-.8 1.6-.2 1.6-.2 2.7V16c0 1.7.2 3 .6 3.8.4.8 1.2 1.1 2.4 1.1s2-.4 2.4-1.2c.4-.8.7-2.1.7-4v-1.6h-2.9v-2.3h5.8v11.3h-2l-.3-2.6c-.7 1.9-2.1 2.9-4.1 2.9-1.9 0-3.4-.7-4.3-2zM119.8 15.1L114.9.4h3l3.5 11 3.4-11h3l-4.9 14.7v8h-3v-8z"/>
  </symbol><symbol id="logo-mobile" viewBox="0 0 190.4 37.6">
    <path d="M6.1 20.7l.1-2.3a136.17 136.17 0 0120.2-1.3 10.87 10.87 0 01-.1 1.8 27.45 27.45 0 016-1.8A16.69 16.69 0 00.2 20.4c2.2.1 5.9.3 5.9.3zm21.1 3.5c-1.2 1.3-1.4 1.2-1.4 3.5v9.2A16.62 16.62 0 0033.2 23a15.53 15.53 0 00-.3-3.1 40.25 40.25 0 00-5.7 4.3zM6.4 25.7s-3.8-1.4-5.2-1.8L0 23.6a16.65 16.65 0 008.7 14z" fill="#fdc305"/>
    <path d="M26.3 17.1A95.5 95.5 0 0024.9.6s-.2-1.2-.9-.2a15.28 15.28 0 00-1.2 3.9 77.62 77.62 0 00-12.8.3C9.2 2 7.9.8 7.2 1s-.7 3.4-.7 3.4l-.4 14.1a137.18 137.18 0 0120.2-1.4z" fill="#f06351"/>
    <path d="M12.4 14c0-.1 1 .7 1.4.9s.6.4.6.6-.3.3-.6.3-.9-.1-1-.3H14a9.24 9.24 0 01-1.6-1.5zm7.5.1a12.67 12.67 0 01-1.1 1.3c0 .1-.2.3.2.3a3 3 0 001.2-.3c.1-.1.1-.2-.1-.2a3.75 3.75 0 00-1 .1l.8-1.2zm-3.1 6.1a2.79 2.79 0 001.1-1c.3-.7 0-.9-.4-1a2.49 2.49 0 00-1.7.3.68.68 0 00-.1 1 4.13 4.13 0 001.1.7z"/>
    <path d="M16.3 21.5a1.79 1.79 0 01-.5.6 1.53 1.53 0 01-1 .4 3.31 3.31 0 01-1.5-.4 2.18 2.18 0 01-.5-.4 1.73 1.73 0 00-.4-.3s.7 4.1 2.6 4.7 2.1-.7 2.2-1.1a6 6 0 00-.8-3.2c.1-.4 0-.2-.1-.3z" fill="#f06351"/>
    <path d="M14.7 22.6a3.39 3.39 0 01-2.3-1.4V21h.2s1 1.3 2.1 1.3a1.94 1.94 0 001.6-1l.1-.2.1.2s.4.8 1 .8 1.1-.4 1.6-1.3c0-.1.1-.1.2 0s.1.1 0 .2a2.39 2.39 0 01-1.9 1.4 1.37 1.37 0 01-1.1-.8 1.82 1.82 0 01-1.6 1z"/>
    <path d="M26.2 18.9a60.38 60.38 0 00-5.1 5.2 35.31 35.31 0 01-5.2 4.9c-.2-.5-1.6-1.5-1.6-1.5s-3.1-2.1-5.2-3.8c-1.2-1-2.3-2.2-3.1-3-.3 0-1.1-.1-2-.1a22.38 22.38 0 0012 8.8c.9-.1 3.3-1.9 5.1-3.3a46.88 46.88 0 005.9-5.9 5.75 5.75 0 001.1-2z" fill="#f06351"/>
    <path d="M91.2 29.8a7 7 0 01-1.2-4.4v-6.3a7 7 0 011.2-4.4q1.2-1.5 4.2-1.5c1.9 0 3.2.4 4 1.3a5.41 5.41 0 011.2 3.8v1.5h-4V18a6.27 6.27 0 00-.2-1.6 1 1 0 00-1-.5c-.5 0-1 .2-1.1.6a3.51 3.51 0 00-.3 1.6v8.3a3.51 3.51 0 00.3 1.6 1.06 1.06 0 001.1.6.92.92 0 001-.6 3.66 3.66 0 00.2-1.6v-1.8h3.9v1.5a6.05 6.05 0 01-1.2 3.9 5.09 5.09 0 01-4 1.4c-1.9-.1-3.3-.6-4.1-1.6zm14-16.4h4.5L113 31h-3.6l-.6-3.7h-2.6l-.6 3.7h-3.7zm3.2 11.6l-.9-6.9-.9 6.9zm7.4-8.7h-2.7v-2.9h9.3v2.9h-2.7V31h-4V16.3zm13.7-2.9h6.9v1.8H132V21h3.6v1.7H132v6.4h4.5v1.8h-7zm9 0h1.7l5.1 11.7V13.4h2.1V31h-1.6l-5.1-12v12h-2.1V13.4zm11.3 0h6.9v1.8h-4.4V21h3.6v1.7h-3.6v6.4h4.5v1.8h-7zm9 0h3.6a6.36 6.36 0 014 1.1c.9.7 1.3 1.9 1.3 3.6 0 2.3-.7 3.6-2.2 4.1L168 31h-2.4l-2.3-8.3h-1.9V31h-2.5zm3.4 7.6a3.52 3.52 0 002.3-.6 2.88 2.88 0 00.7-2.3 7.18 7.18 0 00-.2-1.7 1.34 1.34 0 00-.9-.9 4 4 0 00-1.7-.3h-1.1V21zm8.6 8.7a7.84 7.84 0 01-1.1-4.5v-5.8a10.92 10.92 0 01.4-3.4 3.82 3.82 0 011.5-2 5 5 0 012.9-.7 4.89 4.89 0 013.6 1.2 5.86 5.86 0 011.1 3.9v.7h-2.3v-.6a8.44 8.44 0 00-.2-1.9 1.26 1.26 0 00-.7-1 2 2 0 00-1.4-.4 2.07 2.07 0 00-1.5.5 2.4 2.4 0 00-.7 1.2 12.17 12.17 0 00-.1 2.1v6.5a6.86 6.86 0 00.5 2.9 2 2 0 001.9.9 1.87 1.87 0 001.9-1 7.6 7.6 0 00.5-3.1V24h-2.3v-1.7h4.5V31h-1.6l-.2-2a3.13 3.13 0 01-3.2 2.2 4 4 0 01-3.5-1.5zm13.5-4.9l-3.9-11.4h2.3l2.7 8.5 2.7-8.5h2.3l-3.8 11.4V31h-2.4v-6.2z" fill="#111"/>
  </symbol><symbol id="logo-tablet" viewBox="0 0 174 52">
  <g clip-path="url(#clip0)">
    <path d="M51.58 20.85a22.23 22.23 0 00-6.93-9.09 21.96 21.96 0 00-21.79-2.93 22.08 22.08 0 00-9.05 6.94 22.35 22.35 0 00-3.06 21.95 22.24 22.24 0 006.81 9.18A21.97 21.97 0 0028 51.44c-.5-1.82-1-3.82-1.45-5.95 1.3.85 2.67 1.6 4.1 2.21 0 0 .1 1.88.24 3.97 1.54.03 3.08-.1 4.6-.4a1.87 1.87 0 010-.66c.24-1.63.93-4.56 1.07-6.44 1-.94 1.83-2.03 2.5-3.23l-.05.39c-.48 3.7-1.47 7.65-2.07 8.75-.2.36-.44.7-.72 1a22 22 0 0014.61-11.53 22.43 22.43 0 00.75-18.7zm-1.26 3.3c-.38.37-1.17.62-1.3-.5-.13-1.14-.16-1.93-.16-1.93s-1.66-2.98-2.28-3.01c-.62-.04-5.03 3.01-6.19 4.34-1 1.12-1.2 1.05-1.2 3.02 0 1.48.19 7.1.08 11.39l-7.02 1.88c-2.2.64-4.45 1.14-6.72 1.5l-.86-5.07h-.12l-2.21-11.44s-3.29-1.25-4.5-1.59a3.21 3.21 0 00-3.44.55 4.4 4.4 0 00-1.49 3.34c.18.4.32.83.42 1.26.04.42-1.04.38-1.73.38s-.79-1.26-.25-2.72c.43-1.13.95-2.22 1.57-3.25.47-.93 1.07-1.77 1.78-2.51 0 0 .12-.3 1.08-.21.96.08 6.27.37 6.27.37l.05-1.97c5.77-.8 11.6-1.2 17.43-1.17v1.6c2.2-1.02 4.59-1.61 7.01-1.74a.78.78 0 01.67.33c.29.38 2.07 2.61 2.28 2.93.58.84 1.1 1.7 1.57 2.61a5.44 5.44 0 01-.74 1.6z" fill="#FDC305"/>
    <path d="M48.64 18.83l.86 1.12c.58.84 1.1 1.7 1.57 2.6a5.44 5.44 0 01-.74 1.55c-.38.38-1.16.63-1.29-.5-.13-1.13-.18-1.88-.18-1.88s-1.66-2.98-2.28-3.01c-.62-.04-5.02 3.01-6.19 4.34-1 1.12-1.2 1.05-1.2 3.02 0 1.3.14 5.78.1 9.76 1.57.17 3.86.6 4.55 1.63 0 0-.25-6.24 6.73-2.97 0 0 .24-8.5 9.87-6.33a37.71 37.71 0 00-11.8-9.33zM39.57 16.81C39.6 12 39.2 7.2 38.36 2.45c0 0-.13-1.13-.75-.2-.51 1.1-.86 2.26-1.03 3.47a60.54 60.54 0 00-11.05.3c-.7-2.4-1.91-3.48-2.49-3.2-.57.3-.64 2.85-.64 2.85l-.29 12.3c5.79-.8 11.62-1.19 17.46-1.16z" fill="#F06351"/>
    <path d="M39.07 40.94c.1-.93.17-2.16.2-3.52l-7.02 1.88c-2.2.65-4.45 1.17-6.72 1.54l.96 4.34c0 .1 0 .2.06.29 1.3.85 2.67 1.6 4.1 2.22 2.08-1 4.07-2.21 5.93-3.6v.06a13.2 13.2 0 002.49-3.2z" fill="#E55645"/>
    <path d="M27.57 14.1c-.05-.1.86.58 1.21.8.35.2.53.36.53.5 0 .15-.23.3-.54.3-.3 0-.8-.1-.86-.22-.07-.13.52 0 .81 0h.25c-.53-.4-1-.86-1.4-1.39zM34.03 14.19s-.87 1.11-.94 1.16c-.08.06-.15.3.16.26.36-.06.7-.14 1.05-.25.1-.05.06-.17-.1-.15-.17.01-.59.04-.86.1l.73-1.11s.03-.1-.04-.01zM31.32 19.5c.4-.18.73-.48.94-.87.24-.57 0-.8-.38-.87a2.1 2.1 0 00-1.5.3c-.34.32-.3.63 0 .87.28.23.6.42.94.57z" fill="#000"/>
    <path d="M31.01 20.6a1.48 1.48 0 01-1.26.85c-.47.04-.94-.1-1.32-.39-.18-.1-.33-.23-.46-.39a.86.86 0 00-.3-.22c-.01 0 .64 3.58 2.2 4.15 1.57.57 1.86-.66 1.9-1 .06-.98-.19-1.96-.7-2.8 0-.27-.02-.1-.06-.2z" fill="#F06351"/>
    <path d="M29.55 21.58a3 3 0 01-2.03-1.24.13.13 0 010-.17.12.12 0 01.09-.04.12.12 0 01.08.04 2.78 2.78 0 001.82 1.14 1.8 1.8 0 001.42-.87l.12-.17.08.2s.33.65.86.69c.54.03.92-.37 1.4-1.12a.12.12 0 01.17-.03.13.13 0 01.04.17c-.57.85-1.11 1.26-1.62 1.22a1.33 1.33 0 01-.97-.63 1.95 1.95 0 01-1.46.81z" fill="#000"/>
    <path d="M31.24 33.28a3.24 3.24 0 003.23-3.26c0-1.8-1.45-3.26-3.23-3.26A3.24 3.24 0 0028 30.02c0 1.8 1.44 3.26 3.23 3.26z" fill="#FDC305"/>
    <path d="M35.52 27.37l-2.7 1.14 1-4.9-6.47 8.49 2.7-1.14-1 4.9 6.47-8.49zm-6.37 3.33l3.58-4.7-.7 3.47 1.73-.7-3.61 4.7.7-3.47-1.7.7zM27.94 29.42c.54 0 .97-.43.97-.97a.97.97 0 00-.97-.97.97.97 0 00-.96.97c0 .54.43.97.96.97zM33.56 32.95c.38 0 .68-.3.68-.69 0-.38-.3-.68-.68-.68a.68.68 0 000 1.37zM34.39 31.06a.3.3 0 00.3-.3.3.3 0 00-.3-.3.3.3 0 00-.3.3c0 .17.13.3.3.3z" fill="#111"/>
    <path d="M39.52 18.39a49.73 49.73 0 00-4.38 4.52 27.56 27.56 0 01-4.58 4.26c-.19-.46-1.4-1.32-1.4-1.32s-2.7-1.87-4.48-3.34c-.96-.8-1.86-1.67-2.7-2.6l-1.73-.1A19.5 19.5 0 0030.6 27.5c.74-.12 2.82-1.62 4.38-2.85a49.89 49.89 0 005.17-5.13c.43-.52.76-1.1.98-1.74-.98.33-1.6.62-1.6.62zM22.34 24.33s-3.29-1.25-4.5-1.59a3.21 3.21 0 00-3.44.55 4.4 4.4 0 00-1.49 3.34c.18.4.32.83.42 1.26.04.42-1.04.38-1.73.38s-.79-1.26-.25-2.72a19.9 19.9 0 011.57-3.25C8.22 24.76 0 30.46 0 30.46c2.35-.14 4.71-.07 7.06.21 4.52.46 4.3 4.06 4.3 4.06 1.6-.44 3.21-.76 4.85-.96 1.83-.13 1.96 1.84 1.96 1.84l.45 3.35a15.8 15.8 0 012.29-2.05 5.19 5.19 0 013.77-1.13l-2.34-11.45z" fill="#F06351"/>
    <path d="M73.79 36.5a7.25 7.25 0 01-1.2-4.52v-6.51c-.12-1.61.3-3.21 1.18-4.56.8-1.03 2.16-1.55 4.1-1.54 1.92 0 3.23.46 3.91 1.36a5.88 5.88 0 011.15 3.9v1.53h-3.57V24.5c0-.43-.04-.87-.1-1.3-.05-.31-.2-.6-.41-.83a1.34 1.34 0 00-1-.32 1.25 1.25 0 00-1.29.65 4.8 4.8 0 00-.29 1.92v8.27c-.04.65.08 1.3.34 1.91a1.28 1.28 0 001.25.63 1.15 1.15 0 001.2-.64c.21-.61.3-1.26.27-1.9v-1.74h3.56v1.5a6.34 6.34 0 01-1.05 4.01c-.76.96-2.07 1.42-3.93 1.42-1.86 0-3.32-.52-4.12-1.59zM87.79 19.62h4.08l3.45 18.25h-3.4l-.6-4.03h-2.87l-.69 4h-3.44l3.47-18.22zm3.14 11.92l-1.08-7.33-1.08 7.33h2.16zM97.96 22.37h-2.79v-2.75h9.23v2.75h-2.75v15.47h-3.7l.01-15.47z" fill="#111"/>
    <path d="M111.65 19.62h7v1.9h-4.48v6.02h3.64v1.8h-3.64v6.68h4.53v1.82h-7.05V19.62zM120.73 19.62h1.72l5.17 12.1v-12.1h2.1v18.25h-1.6l-5.18-12.45v12.42h-2.13l-.08-18.22zM132.5 19.62h7v1.9h-4.48v6.02h3.67v1.8h-3.63v6.68h4.5v1.82h-7.06V19.62zM141.58 19.62h3.63a6 6 0 014.02 1.14c.87.75 1.29 1.99 1.29 3.7 0 2.32-.75 3.73-2.23 4.25l2.58 9.13h-2.45l-2.36-8.55h-1.96v8.55h-2.52V19.62zm3.44 7.82c.83.08 1.66-.15 2.33-.66a3.12 3.12 0 00.7-2.35 5.12 5.12 0 00-.25-1.74 1.64 1.64 0 00-.86-.94 4.07 4.07 0 00-1.76-.3h-1.12v6.03l.96-.04zM153.91 36.5a8.1 8.1 0 01-1.1-4.65v-6.09c-.02-1.17.12-2.34.44-3.47a3.9 3.9 0 011.5-2.1 5.06 5.06 0 012.9-.73 4.5 4.5 0 013.6 1.29 6.12 6.12 0 011.1 4.02v.68h-2.37v-.56c.01-.68-.04-1.36-.16-2.02-.08-.43-.31-.8-.65-1.07a2.57 2.57 0 00-1.49-.36 2.16 2.16 0 00-1.56.5c-.35.33-.59.79-.66 1.28-.1.71-.16 1.44-.15 2.16v6.77c-.06 1.03.11 2.06.51 3a2.43 2.43 0 003.85-.07c.42-1 .6-2.09.53-3.17v-1.29h-2.3v-1.8h4.57v9.02h-1.56l-.25-2.1a3.21 3.21 0 01-3.2 2.33 3.98 3.98 0 01-3.55-1.58zM167.71 31.41l-3.9-11.79h2.34l2.77 8.8 2.72-8.8H174l-3.88 11.8v6.42h-2.41v-6.43z" fill="#444"/>
  </g>
  
</symbol></svg>